<svg xmlns="http://www.w3.org/2000/svg" width="25.827" height="25.826" viewBox="0 0 25.827 25.826">
  <path id="area" d="M25.086,20.26a2.525,2.525,0,0,1,0,3.567l0,0-1.726,1.7A1.009,1.009,0,1,1,21.938,24.1l1.01-1H6.758a4.04,4.04,0,0,1-4.035-4.035V2.853l-1.006.993A1.009,1.009,0,0,1,.3,2.409L2,.728a2.542,2.542,0,0,1,3.557,0l1.7,1.681A1.009,1.009,0,0,1,5.847,3.846L4.74,2.753V19.067a2.02,2.02,0,0,0,2.018,2.018H23.05l-1.112-1.1a1.009,1.009,0,1,1,1.418-1.436l1.726,1.7,0,0ZM22.8,0H9.734a1.009,1.009,0,1,0,0,2.018H22.8a1.009,1.009,0,0,1,1.009,1.009V16.142a1.009,1.009,0,1,0,2.018,0V3.027A3.027,3.027,0,0,0,22.8,0Zm-7.97,17.3a1.009,1.009,0,0,0,1.009-1.009V11.8A2.773,2.773,0,0,0,11.3,9.659a2.77,2.77,0,0,0-2.851-.415,1.008,1.008,0,0,0-1.689.743v6.305a1.009,1.009,0,1,0,2.018,0V11.8a.757.757,0,1,1,1.513,0v4.5a1.009,1.009,0,1,0,2.018,0V11.8a.757.757,0,1,1,1.513,0v4.49A1.009,1.009,0,0,0,14.828,17.3ZM19.406,5.448h-.031a2.331,2.331,0,0,0-2.327,2.33,1.009,1.009,0,0,0,2.018,0,.315.315,0,0,1,.309-.312h.031a.315.315,0,0,1,.308.291,4.895,4.895,0,0,1-1.141,1.594c-.6.659-1.189,1.2-1.194,1.2a1.009,1.009,0,0,0,.678,1.756h2.724a1.009,1.009,0,1,0,0-2.018h-.347a4.254,4.254,0,0,0,1.3-2.513,2.331,2.331,0,0,0-2.327-2.33Zm0,0" transform="translate(0.002)" fill="#5d9b58"/>
</svg>
