<svg xmlns="http://www.w3.org/2000/svg" width="19.4" height="22.992" viewBox="0 0 19.4 22.992">
  <g id="call" transform="translate(-39.996)">
    <path id="Path_1139" data-name="Path 1139" d="M125.927,79.343a.719.719,0,0,0-1.016,0l-1.344,1.344a6.492,6.492,0,0,1-2.54-2.54l1.344-1.344a.719.719,0,0,0,0-1.016l-2.794-2.794a.719.719,0,0,0-1.016,0l-1.524,1.524c-.756.756-.848,2.014-.26,3.542,1.694,4.4,8.042,9,10.422,6.619l1.524-1.524a.719.719,0,0,0,0-1.016Zm.254,4.319c-.316.316-1.086.291-2.01-.065a12.128,12.128,0,0,1-6.054-6.054c-.356-.924-.38-1.695-.065-2.01l1.016-1.016,1.778,1.778-1.016,1.016c-.271.271-.484.792.041,1.737.77,1.387,3.4,3.964,4.531,2.835l1.016-1.016,1.778,1.778Z" transform="translate(-72.967 -69.513)" fill="#06a1cb"/>
    <path id="Path_1140" data-name="Path 1140" d="M55.444,0h-11.5A3.956,3.956,0,0,0,40,3.952v11.5A3.956,3.956,0,0,0,43.948,19.4h3.186l1.946,3.244a.719.719,0,0,0,1.232,0L52.258,19.4h3.186A3.956,3.956,0,0,0,59.4,15.448V3.952A3.956,3.956,0,0,0,55.444,0Zm2.515,15.448a2.518,2.518,0,0,1-2.515,2.515H51.851a.719.719,0,0,0-.616.349L49.7,20.877l-1.539-2.566a.719.719,0,0,0-.616-.349H43.948a2.518,2.518,0,0,1-2.515-2.515V3.952a2.518,2.518,0,0,1,2.515-2.515h11.5a2.518,2.518,0,0,1,2.515,2.515Z" fill="#06a1cb"/>
  </g>
</svg>
