<svg id="Group_56900" data-name="Group 56900" xmlns="http://www.w3.org/2000/svg" width="40.001" height="40.001" viewBox="0 0 40.001 40.001">
  <path id="Path_3071" data-name="Path 3071" d="M34.14,5.855A20,20,0,1,0,40,20,20,20,0,0,0,34.14,5.855Zm-3.851,22,0,0v-.007l-1.013,1.007A5.333,5.333,0,0,1,24.24,30.3,17.722,17.722,0,0,1,19.093,28a23.78,23.78,0,0,1-4.06-3.273A23.962,23.962,0,0,1,12,21.042a18.665,18.665,0,0,1-2.28-4.613,5.333,5.333,0,0,1,1.333-5.447L12.24,9.8a.847.847,0,0,1,1.2,0l0,0,3.747,3.747a.847.847,0,0,1,0,1.2l0,0-2.2,2.2a1.793,1.793,0,0,0-.187,2.333,25.729,25.729,0,0,0,2.633,3.073A25.572,25.572,0,0,0,20.9,25.263a1.807,1.807,0,0,0,2.307-.2l2.127-2.16a.847.847,0,0,1,1.2,0l0,0,3.753,3.76A.846.846,0,0,1,30.289,27.86Z" transform="translate(0 0)" fill="#1f8716"/>
</svg>
