<svg xmlns="http://www.w3.org/2000/svg" width="24.924" height="21" viewBox="0 0 24.924 21">
  <path id="FontAwsome_tty_" data-name="FontAwsome (tty)" d="M.261,4.259a19.607,19.607,0,0,1,24.4,0,.666.666,0,0,1,.126.93l-2.1,2.836a.985.985,0,0,1-1.088.3L17.389,6.906a.75.75,0,0,1-.557-.773l.29-2.442a16.231,16.231,0,0,0-9.321,0l.29,2.442a.75.75,0,0,1-.557.773L3.327,8.324a.985.985,0,0,1-1.088-.3L.136,5.189a.666.666,0,0,1,.126-.93Zm4.412,8.374V10.992a.544.544,0,0,0-.584-.492H2.142a.544.544,0,0,0-.584.492v1.641a.544.544,0,0,0,.584.492H4.089A.544.544,0,0,0,4.673,12.633Zm4.673,0V10.992a.544.544,0,0,0-.584-.492H6.815a.544.544,0,0,0-.584.492v1.641a.544.544,0,0,0,.584.492H8.762A.544.544,0,0,0,9.346,12.633Zm4.673,0V10.992a.544.544,0,0,0-.584-.492H11.488a.544.544,0,0,0-.584.492v1.641a.544.544,0,0,0,.584.492h1.947A.544.544,0,0,0,14.02,12.633Zm4.673,0V10.992a.544.544,0,0,0-.584-.492H16.162a.544.544,0,0,0-.584.492v1.641a.544.544,0,0,0,.584.492h1.947A.544.544,0,0,0,18.693,12.633Zm4.673,0V10.992a.544.544,0,0,0-.584-.492H20.835a.544.544,0,0,0-.584.492v1.641a.544.544,0,0,0,.584.492h1.947A.544.544,0,0,0,23.366,12.633ZM7.01,16.571V14.93a.544.544,0,0,0-.584-.492H4.478a.544.544,0,0,0-.584.492v1.641a.544.544,0,0,0,.584.492H6.426A.544.544,0,0,0,7.01,16.571Zm4.673,0V14.93a.544.544,0,0,0-.584-.492H9.152a.544.544,0,0,0-.584.492v1.641a.544.544,0,0,0,.584.492H11.1A.544.544,0,0,0,11.683,16.571Zm4.673,0V14.93a.544.544,0,0,0-.584-.492H13.825a.544.544,0,0,0-.584.492v1.641a.544.544,0,0,0,.584.492h1.947A.544.544,0,0,0,16.356,16.571Zm4.673,0V14.93a.544.544,0,0,0-.584-.492H18.5a.544.544,0,0,0-.584.492v1.641a.544.544,0,0,0,.584.492h1.947A.544.544,0,0,0,21.029,16.571ZM4.673,20.508V18.867a.544.544,0,0,0-.584-.492H2.142a.544.544,0,0,0-.584.492v1.641A.544.544,0,0,0,2.142,21H4.089A.544.544,0,0,0,4.673,20.508Zm14.02,0V18.867a.544.544,0,0,0-.584-.492H6.815a.544.544,0,0,0-.584.492v1.641A.544.544,0,0,0,6.815,21H18.109A.544.544,0,0,0,18.693,20.508Zm4.673,0V18.867a.544.544,0,0,0-.584-.492H20.835a.544.544,0,0,0-.584.492v1.641a.544.544,0,0,0,.584.492h1.947A.544.544,0,0,0,23.366,20.508Z" transform="translate(0 0)" fill="#399432"/>
</svg>
