<svg xmlns="http://www.w3.org/2000/svg" width="26.578" height="25" viewBox="0 0 26.578 25">
  <path id="FontAwsome_comments_" data-name="FontAwsome (comments)" d="M24.539,51.766a8.486,8.486,0,0,0,2.03-5.48,9.152,9.152,0,0,0-8.129-8.811A9.635,9.635,0,0,0,9.59,32c-5.3,0-9.6,4-9.6,8.929a8.509,8.509,0,0,0,2.03,5.48A14.925,14.925,0,0,1,.284,49.472a1.494,1.494,0,0,0-.2,1.4,1.079,1.079,0,0,0,.978.781,9.406,9.406,0,0,0,5.776-2.165,11.1,11.1,0,0,0,1.31.273,9.606,9.606,0,0,0,8.826,5.458,10.2,10.2,0,0,0,2.759-.379A9.428,9.428,0,0,0,25.507,57a1.084,1.084,0,0,0,.978-.781,1.507,1.507,0,0,0-.2-1.4A14.507,14.507,0,0,1,24.539,51.766ZM6.416,46.615l-.789.619a8.854,8.854,0,0,1-1.989,1.194c.125-.262.249-.541.369-.826l.715-1.735L3.578,44.5a5.6,5.6,0,0,1-1.37-3.571c0-3.387,3.382-6.25,7.382-6.25s7.382,2.863,7.382,6.25-3.382,6.25-7.382,6.25a8.4,8.4,0,0,1-2.261-.313l-.914-.251Zm16.568,3.242-1.14,1.362.715,1.735c.12.285.245.564.369.826a8.854,8.854,0,0,1-1.989-1.194l-.789-.619-.918.257a8.4,8.4,0,0,1-2.261.313,7.833,7.833,0,0,1-6.058-2.773,9.161,9.161,0,0,0,8.272-8.834c0-.19-.018-.374-.032-.558,2.971.809,5.2,3.17,5.2,5.915A5.6,5.6,0,0,1,22.984,49.857Z" transform="translate(0.007 -32)" fill="#399432"/>
</svg>
