<svg id="Group_57023" data-name="Group 57023" xmlns="http://www.w3.org/2000/svg" width="13.871" height="18.611" viewBox="0 0 13.871 18.611">
  <path id="Path_3179" data-name="Path 3179" d="M74.667,112.65a.937.937,0,0,0,.936.9h8.744a.937.937,0,0,0,.936-.9l.624-13.182H74.043Zm7.286-9.908a.38.38,0,0,1,.38-.38h.608a.38.38,0,0,1,.38.38v7.531a.38.38,0,0,1-.38.38h-.608a.38.38,0,0,1-.38-.38Zm-2.663,0a.38.38,0,0,1,.38-.38h.608a.38.38,0,0,1,.38.38v7.531a.38.38,0,0,1-.38.38h-.608a.38.38,0,0,1-.38-.38v-7.531Zm-2.663,0a.38.38,0,0,1,.38-.38h.609a.38.38,0,0,1,.38.38v7.531a.38.38,0,0,1-.38.38h-.609a.38.38,0,0,1-.38-.38Z" transform="translate(-73.039 -94.936)" fill="#dc090d"/>
  <path id="Path_3180" data-name="Path 3180" d="M65.3.959H61.266V.2a.2.2,0,0,0-.2-.2H56.834a.2.2,0,0,0-.2.2V.959H52.6a.588.588,0,0,0-.588.588V3.393H65.887V1.547A.588.588,0,0,0,65.3.959Z" transform="translate(-52.016)" fill="#dc090d"/>
</svg>
