<svg id="directional-sign" xmlns="http://www.w3.org/2000/svg" width="28.501" height="28.501" viewBox="0 0 28.501 28.501">
  <path id="Path_3158" data-name="Path 3158" d="M14.25,0A14.25,14.25,0,1,0,28.5,14.25,14.266,14.266,0,0,0,14.25,0Zm0,27.388A13.137,13.137,0,1,1,27.388,14.25,13.152,13.152,0,0,1,14.25,27.388Zm0,0" fill="#1f8716" fill-rule="evenodd"/>
  <path id="Path_3159" data-name="Path 3159" d="M57.336,45.625A11.711,11.711,0,1,0,69.046,57.336,11.724,11.724,0,0,0,57.336,45.625Zm0,22.308a10.6,10.6,0,1,1,10.6-10.6A10.609,10.609,0,0,1,57.336,67.933Zm0,0" transform="translate(-43.085 -43.085)" fill="#1f8716" fill-rule="evenodd"/>
  <path id="Path_3160" data-name="Path 3160" d="M130.1,147.567l-4.278,1.814a.557.557,0,0,0,.434,1.025l3.011-1.277L125,159.191l-1.41-4.043a.556.556,0,0,0-.342-.342l-4.043-1.41,2.95-1.251a.557.557,0,0,0-.435-1.025l-4.278,1.814a.556.556,0,0,0,.034,1.038l5.151,1.8,1.8,5.151a.557.557,0,0,0,.507.373h.018a.557.557,0,0,0,.513-.339L130.83,148.3a.556.556,0,0,0-.73-.73Zm0,0" transform="translate(-110.585 -139.311)" fill="#1f8716" fill-rule="evenodd"/>
  <path id="Path_3161" data-name="Path 3161" d="M231.346,196.84a.557.557,0,1,0-.557-.557A.558.558,0,0,0,231.346,196.84Zm0,0" transform="translate(-217.942 -184.832)" fill="#1f8716" fill-rule="evenodd"/>
</svg>
