<svg xmlns="http://www.w3.org/2000/svg" width="14.85" height="8.852" viewBox="0 0 14.85 8.852">
  <g id="eye" transform="translate(0 -98.725)">
    <path id="Path_2887" data-name="Path 2887" d="M7.425,98.725A9.264,9.264,0,0,0,.116,102.8a.588.588,0,0,0,0,.7,9.259,9.259,0,0,0,7.309,4.077,9.264,9.264,0,0,0,7.309-4.074.588.588,0,0,0,0-.7A9.259,9.259,0,0,0,7.425,98.725Zm.2,7.543a3.123,3.123,0,1,1,2.913-2.913A3.125,3.125,0,0,1,7.628,106.268Zm-.094-1.44a1.682,1.682,0,1,1,1.57-1.57A1.679,1.679,0,0,1,7.534,104.828Z" fill="#06a1cb"/>
  </g>
</svg>
