<svg id="add" xmlns="http://www.w3.org/2000/svg" width="52" height="52" viewBox="0 0 52 52">
  <path id="Path_38116" data-name="Path 38116" d="M19.543,45.5H5.417A5.423,5.423,0,0,1,0,40.083V5.417A5.423,5.423,0,0,1,5.417,0h26a5.423,5.423,0,0,1,5.417,5.417v13.13a1.083,1.083,0,0,1-2.167,0V5.417a3.254,3.254,0,0,0-3.25-3.25h-26a3.254,3.254,0,0,0-3.25,3.25V40.083a3.254,3.254,0,0,0,3.25,3.25H19.543a1.083,1.083,0,0,1,0,2.167Z" fill="#6887fc"/>
  <path id="Path_38117" data-name="Path 38117" d="M25.75,10.167H4.083A1.083,1.083,0,1,1,4.083,8H25.75a1.083,1.083,0,1,1,0,2.167Z" transform="translate(3.5 9.333)" fill="#6887fc"/>
  <path id="Path_38118" data-name="Path 38118" d="M17.083,14.167h-13a1.083,1.083,0,1,1,0-2.167h13a1.083,1.083,0,0,1,0,2.167Z" transform="translate(3.5 14)" fill="#6887fc"/>
  <path id="Path_38119" data-name="Path 38119" d="M14.917,6.167H4.083A1.083,1.083,0,1,1,4.083,4H14.917a1.083,1.083,0,1,1,0,2.167Z" transform="translate(3.5 4.667)" fill="#6887fc"/>
  <path id="Path_38120" data-name="Path 38120" d="M25.083,39.167A14.083,14.083,0,1,1,39.167,25.083,14.1,14.1,0,0,1,25.083,39.167Zm0-26A11.917,11.917,0,1,0,37,25.083,11.931,11.931,0,0,0,25.083,13.167Z" transform="translate(12.833 12.833)" fill="#6887fc"/>
  <path id="Path_38121" data-name="Path 38121" d="M18.083,29.167A1.084,1.084,0,0,1,17,28.083v-13a1.083,1.083,0,1,1,2.167,0v13A1.084,1.084,0,0,1,18.083,29.167Z" transform="translate(19.833 16.333)" fill="#6887fc"/>
  <path id="Path_38122" data-name="Path 38122" d="M28.083,19.167h-13a1.083,1.083,0,1,1,0-2.167h13a1.083,1.083,0,1,1,0,2.167Z" transform="translate(16.333 19.833)" fill="#6887fc"/>
</svg>
