<svg xmlns="http://www.w3.org/2000/svg" width="36.121" height="41.036" viewBox="0 0 36.121 41.036">
  <g id="contact-book" transform="translate(2.082)">
    <path id="Path_38145" data-name="Path 38145" d="M29.164,0H6.076A4.887,4.887,0,0,0,1.191,4.885V7H-1.1a.977.977,0,0,0-.977.977A.977.977,0,0,0-1.1,8.95H1.181v6.409H-1.1a.977.977,0,0,0-.977.977.977.977,0,0,0,.977.977H1.181v6.409H-1.1a.977.977,0,0,0-.977.977.977.977,0,0,0,.977.977H1.181v6.409H-1.1a.977.977,0,0,0-.977.977.977.977,0,0,0,.977.977H1.181v2.11a4.887,4.887,0,0,0,4.885,4.885H29.154a4.887,4.887,0,0,0,4.885-4.885V4.885A4.878,4.878,0,0,0,29.164,0ZM32.1,36.151a2.94,2.94,0,0,1-2.931,2.931H6.076a2.94,2.94,0,0,1-2.931-2.931V34.04H5.431a.977.977,0,1,0,0-1.954H3.145V25.677H5.431a.977.977,0,1,0,0-1.954H3.145V17.313H5.431a.977.977,0,1,0,0-1.954H3.145V8.95H5.431A.977.977,0,1,0,5.431,7H3.145V4.885A2.94,2.94,0,0,1,6.076,1.954H29.164A2.94,2.94,0,0,1,32.1,4.885Zm0,0" fill="#6887fc"/>
    <path id="Path_38146" data-name="Path 38146" d="M194.032,147.1a4.739,4.739,0,1,0-4.739-4.739A4.739,4.739,0,0,0,194.032,147.1Zm0-7.533a2.785,2.785,0,1,1-2.785,2.785A2.785,2.785,0,0,1,194.032,139.569Zm0,0" transform="translate(-176.416 -126.868)" fill="#6887fc"/>
    <path id="Path_38147" data-name="Path 38147" d="M164.414,279a7.3,7.3,0,0,0-7.25,7.5.98.98,0,0,0,.977.977h12.546a.98.98,0,0,0,.977-.977,7.3,7.3,0,0,0-7.25-7.5Zm-5.218,6.527a5.263,5.263,0,0,1,10.435,0Zm0,0" transform="translate(-146.799 -257.192)" fill="#6887fc"/>
  </g>
</svg>
