<svg xmlns="http://www.w3.org/2000/svg" width="49.533" height="49.892" viewBox="0 0 49.533 49.892">
  <g id="document" transform="translate(-1.842)">
    <path id="Path_38123" data-name="Path 38123" d="M40.349,4.278H38.5V2.29A2.293,2.293,0,0,0,36.213,0H15.777a.731.731,0,0,0,0,1.462H36.213a.829.829,0,0,1,.828.828V4.278H8.268a2.293,2.293,0,0,0-2.29,2.29V44.152H4.132a.829.829,0,0,1-.828-.828V2.29a.829.829,0,0,1,.828-.828h8.226a.731.731,0,0,0,0-1.462H4.132a2.293,2.293,0,0,0-2.29,2.29V43.324a2.293,2.293,0,0,0,2.29,2.29H5.978V47.6a2.293,2.293,0,0,0,2.29,2.29H40.349a2.293,2.293,0,0,0,2.29-2.29V6.568a2.293,2.293,0,0,0-2.29-2.29ZM41.177,47.6a.829.829,0,0,1-.828.828H8.268a.829.829,0,0,1-.828-.828V6.568a.829.829,0,0,1,.828-.828H40.349a.829.829,0,0,1,.828.828Z" transform="translate(0)" fill="#6887fc"/>
    <path id="Path_38124" data-name="Path 38124" d="M105.794,105.236a2.914,2.914,0,1,0,2.913,2.914A2.917,2.917,0,0,0,105.794,105.236Zm0,4.366a1.452,1.452,0,1,1,1.452-1.452A1.454,1.454,0,0,1,105.794,109.6Z" transform="translate(-91.192 -94.981)" fill="#6887fc"/>
    <path id="Path_38125" data-name="Path 38125" d="M196.631,111.988h-16.3a.731.731,0,1,0,0,1.462h16.3a.731.731,0,1,0,0-1.462Z" transform="translate(-160.434 -101.075)" fill="#6887fc"/>
    <path id="Path_38126" data-name="Path 38126" d="M180.328,144.747H193.1a.731.731,0,0,0,0-1.462H180.328a.731.731,0,1,0,0,1.462Z" transform="translate(-160.434 -129.323)" fill="#6887fc"/>
    <path id="Path_38127" data-name="Path 38127" d="M105.794,201.614a2.914,2.914,0,1,0,2.913,2.914A2.917,2.917,0,0,0,105.794,201.614Zm0,4.366a1.452,1.452,0,1,1,1.452-1.452A1.454,1.454,0,0,1,105.794,205.98Z" transform="translate(-91.192 -181.968)" fill="#6887fc"/>
    <path id="Path_38128" data-name="Path 38128" d="M196.631,208.366h-16.3a.731.731,0,1,0,0,1.462h16.3a.731.731,0,1,0,0-1.462Z" transform="translate(-160.434 -188.062)" fill="#6887fc"/>
    <path id="Path_38129" data-name="Path 38129" d="M180.328,241.125H193.1a.731.731,0,0,0,0-1.462H180.328a.731.731,0,1,0,0,1.462Z" transform="translate(-160.434 -216.309)" fill="#6887fc"/>
    <path id="Path_38130" data-name="Path 38130" d="M105.794,297.992a2.914,2.914,0,1,0,2.913,2.914A2.917,2.917,0,0,0,105.794,297.992Zm0,4.366a1.452,1.452,0,1,1,1.452-1.452A1.454,1.454,0,0,1,105.794,302.358Z" transform="translate(-91.192 -268.954)" fill="#6887fc"/>
    <path id="Path_38131" data-name="Path 38131" d="M196.631,304.744h-16.3a.731.731,0,1,0,0,1.462h16.3a.731.731,0,1,0,0-1.462Z" transform="translate(-160.434 -275.048)" fill="#6887fc"/>
    <path id="Path_38132" data-name="Path 38132" d="M180.328,337.5H193.1a.731.731,0,1,0,0-1.462H180.328a.731.731,0,1,0,0,1.462Z" transform="translate(-160.434 -303.296)" fill="#6887fc"/>
    <path id="Path_38133" data-name="Path 38133" d="M105.794,394.37a2.914,2.914,0,1,0,2.913,2.914A2.917,2.917,0,0,0,105.794,394.37Zm0,4.366a1.452,1.452,0,1,1,1.452-1.452A1.454,1.454,0,0,1,105.794,398.736Z" transform="translate(-91.192 -355.941)" fill="#6887fc"/>
    <path id="Path_38134" data-name="Path 38134" d="M196.631,401.122h-16.3a.731.731,0,1,0,0,1.462h16.3a.731.731,0,1,0,0-1.462Z" transform="translate(-160.434 -362.035)" fill="#6887fc"/>
    <path id="Path_38135" data-name="Path 38135" d="M193.1,432.419H180.328a.731.731,0,1,0,0,1.462H193.1a.731.731,0,0,0,0-1.462Z" transform="translate(-160.434 -390.282)" fill="#6887fc"/>
    <path id="Path_38136" data-name="Path 38136" d="M442.92,130.677H440.1A2.314,2.314,0,0,0,438,133.17c0,1.048,0,7.854,0,9.472a.731.731,0,0,0,1.462,0v-6.063h4.108v17.73h-4.108v-8.257a.731.731,0,1,0-1.462,0v8.988a.757.757,0,0,0,.06.29h0l2.349,5.415a1.175,1.175,0,0,0,2.212,0l2.349-5.415v0a.755.755,0,0,0,.06-.289V133.17A2.327,2.327,0,0,0,442.92,130.677Zm-3.462,4.441V133.17c0-.583.328-1.031.646-1.031h2.817c.305,0,.646.424.646,1.031v1.948Zm2.054,24.506-1.671-3.852h3.343Z" transform="translate(-393.653 -117.943)" fill="#6887fc"/>
  </g>
</svg>
