<svg xmlns="http://www.w3.org/2000/svg" width="37.5" height="48" viewBox="0 0 37.5 48">
  <g id="to-do-list" transform="translate(-56)">
    <path id="Path_38137" data-name="Path 38137" d="M118.267,156.865l4.383-5.273a.7.7,0,0,0-1.081-.9l-3.757,4.52-.821-1.334a.7.7,0,0,0-1.2.737l1.335,2.168A.7.7,0,0,0,118.267,156.865Z" transform="translate(-54.092 -136.335)" fill="#6887fc"/>
    <path id="Path_38138" data-name="Path 38138" d="M115.794,253.615l1.335,2.168a.7.7,0,0,0,1.139.081l4.383-5.273a.7.7,0,0,0-1.081-.9l-3.757,4.52-.821-1.334a.7.7,0,1,0-1.2.737Z" transform="translate(-54.093 -226.053)" fill="#6887fc"/>
    <path id="Path_38139" data-name="Path 38139" d="M115.794,353.282l1.335,2.168a.7.7,0,0,0,1.139.081l4.383-5.273a.7.7,0,1,0-1.081-.9l-3.757,4.52-.821-1.334a.7.7,0,1,0-1.2.737Z" transform="translate(-54.093 -316.376)" fill="#6887fc"/>
    <path id="Path_38140" data-name="Path 38140" d="M92.8,175.005a.7.7,0,0,0-.7.7v5.118a1.079,1.079,0,0,1-1.078,1.078H58.484a1.079,1.079,0,0,1-1.078-1.078V150.012a.7.7,0,0,0-1.406,0v30.815a2.487,2.487,0,0,0,2.484,2.484H91.016a2.487,2.487,0,0,0,2.484-2.484v-5.118A.7.7,0,0,0,92.8,175.005Z" transform="translate(0 -135.311)" fill="#6887fc"/>
    <path id="Path_38141" data-name="Path 38141" d="M91.016,5.418H87.576V2.513a2.513,2.513,0,0,0-5.025,0V5.418H77.263V2.513a2.512,2.512,0,1,0-5.025,0V5.418H66.949V2.513a2.512,2.512,0,1,0-5.025,0V5.418H58.484A2.487,2.487,0,0,0,56,7.9V11.42a.7.7,0,1,0,1.406,0V7.9a1.079,1.079,0,0,1,1.078-1.078h3.439V7.941a2.512,2.512,0,1,0,5.025,0V6.824h5.289V7.941a2.512,2.512,0,1,0,5.025,0V6.824h5.289V7.941a2.513,2.513,0,1,0,5.025,0V6.824h3.439A1.079,1.079,0,0,1,92.094,7.9V37.116a.7.7,0,0,0,1.406,0V7.9a2.487,2.487,0,0,0-2.484-2.484ZM65.543,7.941a1.106,1.106,0,1,1-2.213,0V2.513a1.106,1.106,0,0,1,2.213,0Zm10.314,0a1.106,1.106,0,0,1-2.213,0V2.513a1.106,1.106,0,0,1,2.213,0Zm10.314,0a1.106,1.106,0,1,1-2.213,0V2.513a1.106,1.106,0,0,1,2.213,0Z" transform="translate(0)" fill="#6887fc"/>
    <path id="Path_38142" data-name="Path 38142" d="M200.442,182.589h14.813a2.2,2.2,0,0,0,0-4.406H200.442a2.2,2.2,0,0,0,0,4.406Zm0-3h14.813a.8.8,0,0,1,0,1.594H200.442a.8.8,0,0,1,0-1.594Z" transform="translate(-128.904 -161.478)" fill="#6887fc"/>
    <path id="Path_38143" data-name="Path 38143" d="M200.442,281.8h14.813a2.2,2.2,0,0,0,0-4.406H200.442a2.2,2.2,0,0,0,0,4.406Zm0-3h14.813a.8.8,0,0,1,0,1.594H200.442a.8.8,0,0,1,0-1.594Z" transform="translate(-128.904 -251.39)" fill="#6887fc"/>
    <path id="Path_38144" data-name="Path 38144" d="M200.442,381.014h14.813a2.2,2.2,0,0,0,0-4.406H200.442a2.2,2.2,0,0,0,0,4.406Zm0-3h14.813a.8.8,0,0,1,0,1.594H200.442a.8.8,0,0,1,0-1.594Z" transform="translate(-128.904 -341.301)" fill="#6887fc"/>
  </g>
</svg>
