<svg xmlns="http://www.w3.org/2000/svg" width="28.455" height="36.842" viewBox="0 0 28.455 36.842">
  <g id="construction-worker" transform="translate(-66 -10)">
    <g id="Group_56958" data-name="Group 56958" transform="translate(66 36.134)">
      <path id="Path_3128" data-name="Path 3128" d="M83.523,359h-6.59l-5.1,1.152a7.488,7.488,0,0,0-5.837,7.3v2.253H94.455v-2.253a7.488,7.488,0,0,0-5.837-7.3Z" transform="translate(-66 -359)" fill="#6e83b7"/>
    </g>
    <g id="Group_56959" data-name="Group 56959" transform="translate(75.448 36.134)">
      <path id="Path_3129" data-name="Path 3129" d="M196.953,363.792a4.8,4.8,0,0,0,4.779-4.457L200.248,359h-6.59l-1.485.336A4.8,4.8,0,0,0,196.953,363.792Z" transform="translate(-192.174 -359)" fill="#edeff1"/>
    </g>
    <g id="Group_56960" data-name="Group 56960" transform="translate(76.933 32.404)">
      <path id="Path_3130" data-name="Path 3130" d="M212,309.188v3.73a3.295,3.295,0,1,0,6.59,0v-3.73Z" transform="translate(-212 -309.188)" fill="#ffd3b3"/>
    </g>
    <g id="Group_56961" data-name="Group 56961" transform="translate(76.933 32.404)">
      <path id="Path_3131" data-name="Path 3131" d="M212,310.888a8.3,8.3,0,0,0,6.59,0v-1.7H212Z" transform="translate(-212 -309.187)" fill="#fcb98b"/>
    </g>
    <g id="Group_56962" data-name="Group 56962" transform="translate(73.413 21.981)">
      <path id="Path_3132" data-name="Path 3132" d="M178.629,170v4.493a6.814,6.814,0,0,1-13.629,0V170Z" transform="translate(-165 -170)" fill="#ffd3b3"/>
    </g>
    <g id="Group_56963" data-name="Group 56963" transform="translate(85.245 21.981)">
      <path id="Path_3133" data-name="Path 3133" d="M323,170l1.8,4.493V170Z" transform="translate(-323 -170)" fill="#6e83b7"/>
    </g>
    <g id="Group_56964" data-name="Group 56964" transform="translate(73.413 21.981)">
      <path id="Path_3134" data-name="Path 3134" d="M166.8,170l-1.8,4.493V170Z" transform="translate(-165 -170)" fill="#6e83b7"/>
    </g>
    <g id="Group_56965" data-name="Group 56965" transform="translate(71.616 21.981)">
      <path id="Path_3135" data-name="Path 3135" d="M141.749,173.669H142.8V170h-1.048a.749.749,0,0,0-.749.749v2.172A.749.749,0,0,0,141.749,173.669Z" transform="translate(-141 -170)" fill="#ffd3b3"/>
    </g>
    <g id="Group_56966" data-name="Group 56966" transform="translate(87.042 21.981)">
      <path id="Path_3136" data-name="Path 3136" d="M348.048,173.669H347V170h1.048a.749.749,0,0,1,.749.749v2.172A.749.749,0,0,1,348.048,173.669Z" transform="translate(-347 -170)" fill="#ffd3b3"/>
    </g>
    <g id="Group_56967" data-name="Group 56967" transform="translate(88.475 44.596)">
      <path id="Path_3137" data-name="Path 3137" d="M366.143,472h.749v2.246h-.749Z" transform="translate(-366.143 -472)" fill="#466089"/>
    </g>
    <g id="Group_56968" data-name="Group 56968" transform="translate(71.231 44.596)">
      <path id="Path_3138" data-name="Path 3138" d="M135.857,472h.749v2.246h-.749Z" transform="translate(-135.857 -472)" fill="#466089"/>
    </g>
    <g id="Group_56969" data-name="Group 56969" transform="translate(72.215 11.048)">
      <path id="Path_3139" data-name="Path 3139" d="M149,34.933v-2.92a8.012,8.012,0,0,1,16.025,0v2.92Z" transform="translate(-149 -24)" fill="#ffe352"/>
    </g>
    <g id="Group_56970" data-name="Group 56970" transform="translate(70.193 19.762)">
      <path id="Path_3140" data-name="Path 3140" d="M132.034,140.37a85.135,85.135,0,0,1,10.034.871v1.348H122v-1.348A85.135,85.135,0,0,1,132.034,140.37Z" transform="translate(-122 -140.37)" fill="#ffe352"/>
    </g>
    <g id="Group_56971" data-name="Group 56971" transform="translate(75.815 11.048)">
      <path id="Path_3141" data-name="Path 3141" d="M201.49,24a7.965,7.965,0,0,0-4.412,1.329l.473,7.574h7.878l.473-7.574A7.965,7.965,0,0,0,201.49,24Z" transform="translate(-197.078 -24)" fill="#ffb236"/>
    </g>
    <g id="Group_56972" data-name="Group 56972" transform="translate(76.83 10)">
      <path id="Path_3142" data-name="Path 3142" d="M211.139,18.875h5.769l.513-8.214a9.065,9.065,0,0,0-6.8,0Z" transform="translate(-210.626 -10)" fill="#ffe352"/>
    </g>
    <g id="Group_56973" data-name="Group 56973" transform="translate(71.991 36.523)">
      <path id="Path_3143" data-name="Path 3143" d="M161.351,369.7v-5.027l-2.1-.474v5.452a3,3,0,0,1-3,3h-4.044a3,3,0,0,1-3-3V364.2l-2.1.474V369.7a3,3,0,0,1-.521,1.687l-.6.884v2.246h16.474V372.27l-.6-.884A3,3,0,0,1,161.351,369.7Z" transform="translate(-146 -364.198)" fill="#ffe352"/>
    </g>
  </g>
</svg>
