<svg xmlns="http://www.w3.org/2000/svg" width="143.561" height="128.159" viewBox="0 0 143.561 128.159">
  <g id="map_3_" data-name="map (3)" transform="translate(0 -27.465)">
    <g id="Group_56908" data-name="Group 56908" transform="translate(36.771 73.489)">
      <path id="Path_3077" data-name="Path 3077" d="M404.342,271.262l-11.279-62.138a2.1,2.1,0,0,0-1.049-1.464l-28.387-15.789a2.1,2.1,0,0,0-1.187-.255l5.165,66.623-.173.077,33.974,15.241a2.107,2.107,0,0,0,2.937-2.3Z" transform="translate(-297.586 -191.608)" fill="#44c868"/>
      <path id="Path_3078" data-name="Path 3078" d="M166.151,206.963l-29.033-15.122a2.1,2.1,0,0,0-1.114-.23,2.173,2.173,0,0,1,.3,0l-5.164,66.624,34.146,15.319a2.108,2.108,0,0,0,.863.185h0Z" transform="translate(-131.142 -191.607)" fill="#44c868"/>
    </g>
    <g id="Group_56909" data-name="Group 56909" transform="translate(0 73.49)">
      <path id="Path_3079" data-name="Path 3079" d="M41.936,191.616a2.1,2.1,0,0,0-1.187.255L12.361,207.66a2.1,2.1,0,0,0-1.048,1.464L.034,271.262a2.107,2.107,0,0,0,2.936,2.3L36.759,258.4Z" transform="translate(0 -191.61)" fill="#4ce166"/>
      <path id="Path_3080" data-name="Path 3080" d="M285.845,191.628a2.1,2.1,0,0,0-.812.229L256,206.979v66.778h0a2.107,2.107,0,0,0,.863-.185l34.147-15.319Z" transform="translate(-184.22 -191.623)" fill="#4ce166"/>
    </g>
    <path id="Path_3081" data-name="Path 3081" d="M22.274,277.239l-2.291,12.623,33.926-17.919.788-10.161.131-1.685Z" transform="translate(-14.38 -167.404)" fill="#ffdb56"/>
    <path id="Path_3082" data-name="Path 3082" d="M39.834,288.294l-.305,3.94L5.6,310.153.034,340.837a2.107,2.107,0,0,0,2.936,2.3l33.788-15.158,3.076-39.681Z" transform="translate(0 -187.695)" fill="#a8eefc"/>
    <g id="Group_56910" data-name="Group 56910" transform="translate(39.529 80.713)">
      <path id="Path_3083" data-name="Path 3083" d="M173.237,264.579,141.9,260.1l-.918,11.846,32.252,48.979v-17.81l-19.245-30.3,19.254,2.3Z" transform="translate(-140.977 -248.117)" fill="#ffbb24"/>
      <path id="Path_3084" data-name="Path 3084" d="M391.816,224.955l-13.637-7.585-12.91,3.016.162,2.085.638,8.225Z" transform="translate(-302.379 -217.37)" fill="#ffbb24"/>
    </g>
    <path id="Path_3085" data-name="Path 3085" d="M288.6,253.209l-1.222-15.772h0l-.721-9.309-30.63,13.445v10.532l20.008-8.7Z" transform="translate(-184.241 -144.398)" fill="#ffdb56"/>
    <path id="Path_3086" data-name="Path 3086" d="M408.428,324,405.6,308.393,368.119,264.9l1.145,14.77L407.7,326A2.1,2.1,0,0,0,408.428,324Z" transform="translate(-264.901 -170.859)" fill="#ffbb24"/>
    <path id="Path_3087" data-name="Path 3087" d="M180.836,27.465a29.5,29.5,0,0,0-29.475,29.451c0,10.045,4.769,20.83,14.175,32.055a100.734,100.734,0,0,0,14.01,13.769,2.109,2.109,0,0,0,2.579,0,100.755,100.755,0,0,0,14.01-13.769c9.406-11.225,14.176-22.009,14.176-32.055A29.5,29.5,0,0,0,180.836,27.465Zm10.916,29.45a10.916,10.916,0,1,1-10.916-10.907A10.911,10.911,0,0,1,191.752,56.916Z" transform="translate(-108.92 0)" fill="#ff4a4a"/>
    <path id="Path_3088" data-name="Path 3088" d="M246.724,27.465a29.644,29.644,0,0,0-3.8.244A29.5,29.5,0,0,1,268.6,56.916c0,10.045-4.769,20.83-14.176,32.055a105.4,105.4,0,0,1-11.5,11.684c1.473,1.276,2.41,2.006,2.512,2.085a2.109,2.109,0,0,0,2.579,0,100.758,100.758,0,0,0,14.01-13.769C271.43,77.746,276.2,66.961,276.2,56.916A29.5,29.5,0,0,0,246.724,27.465Z" transform="translate(-174.808 0)" fill="#e7343f"/>
    <path id="Path_3089" data-name="Path 3089" d="M256.863,433.237l12.7-5.7L256,413.507v19.915h0A2.1,2.1,0,0,0,256.863,433.237Z" transform="translate(-184.219 -277.799)" fill="#ffdb56"/>
    <g id="Group_56911" data-name="Group 56911" transform="translate(36.771 88.298)">
      <path id="Path_3090" data-name="Path 3090" d="M397.149,247.127a2.1,2.1,0,0,0-1.048-1.464l-2.235-1.243-25.748,5.742h0l37.476,43.495Z" transform="translate(-301.671 -244.42)" fill="#1ea4e9"/>
      <path id="Path_3091" data-name="Path 3091" d="M166.15,353.43h0v-2.105L133.9,302.346l-2.758,35.58,34.146,15.319A2.108,2.108,0,0,0,166.15,353.43Z" transform="translate(-131.14 -286.104)" fill="#1ea4e9"/>
    </g>
  </g>
</svg>
