<svg xmlns="http://www.w3.org/2000/svg" width="101.967" height="102" viewBox="0 0 101.967 102">
  <g id="map_4_" data-name="map (4)" transform="translate(-0.083)">
    <path id="Path_3144" data-name="Path 3144" d="M101.935,354.836l-14.7-35.582a1.489,1.489,0,0,0-1.375-.924H16.27a1.489,1.489,0,0,0-1.375.924L.2,354.836a1.509,1.509,0,0,0,.136,1.409,1.486,1.486,0,0,0,1.239.668H100.56a1.487,1.487,0,0,0,1.239-.668A1.51,1.51,0,0,0,101.935,354.836Z" transform="translate(0 -254.913)" fill="#a8eefc"/>
    <path id="Path_3145" data-name="Path 3145" d="M416.577,356.913h4.741a1.487,1.487,0,0,0,1.239-.668,1.51,1.51,0,0,0,.136-1.409l-14.7-35.582a1.489,1.489,0,0,0-1.375-.924h-5.981Z" transform="translate(-320.758 -254.913)" fill="#7ee5f2"/>
    <g id="Group_56974" data-name="Group 56974" transform="translate(9.626 63.384)">
      <path id="Path_3146" data-name="Path 3146" d="M62.962,331.616l5.072-13.453h-13.5a1.489,1.489,0,0,0-1.375.924l-5.176,12.529Z" transform="translate(-47.985 -318.163)" fill="#4ce166"/>
      <path id="Path_3147" data-name="Path 3147" d="M241.783,318.163H194.912l13.671,11.921H247.7l-4.543-11A1.49,1.49,0,0,0,241.783,318.163Z" transform="translate(-165.641 -318.163)" fill="#4ce166"/>
      <path id="Path_3148" data-name="Path 3148" d="M461.655,382.269l.282.682h0Z" transform="translate(-379.244 -369.498)" fill="#4ce166"/>
    </g>
    <path id="Path_3149" data-name="Path 3149" d="M118.94,341.026l-4.52-10.942H75.3L61.631,318.163H51.293l-4.949,11.918H32.994l-3,7.259-1.523,3.687H41.837l-6.493,15.719H47.492l10.429-25.535L88,356.746h17.756L87.778,341.026Z" transform="translate(-22.735 -254.779)" fill="#ffdb56"/>
    <path id="Path_3150" data-name="Path 3150" d="M126.23,0A32.325,32.325,0,0,0,94.063,32.409a44.52,44.52,0,0,0,4.946,19.427,82.019,82.019,0,0,0,10.74,16.24,112.351,112.351,0,0,0,15.569,15.432,1.481,1.481,0,0,0,1.823,0A112.376,112.376,0,0,0,142.71,68.076a82,82,0,0,0,10.74-16.24A44.521,44.521,0,0,0,158.4,32.409,32.325,32.325,0,0,0,126.23,0Zm0,20.081a12.328,12.328,0,1,1-12.236,12.328A12.282,12.282,0,0,1,126.23,20.081Z" transform="translate(-75.258)" fill="#ff4a4a"/>
    <path id="Path_3151" data-name="Path 3151" d="M242.915,0c-1.058,0-2.1.053-3.138.154a32.361,32.361,0,0,1,29.029,32.254,44.52,44.52,0,0,1-4.946,19.427,82.019,82.019,0,0,1-10.74,16.24,117.41,117.41,0,0,1-13.343,13.586c1.31,1.127,2.126,1.767,2.226,1.845a1.481,1.481,0,0,0,1.823,0A112.377,112.377,0,0,0,259.4,68.075a82,82,0,0,0,10.74-16.24,44.521,44.521,0,0,0,4.946-19.427A32.324,32.324,0,0,0,242.915,0Z" transform="translate(-191.944)" fill="#e7343f"/>
    <path id="Path_3152" data-name="Path 3152" d="M123.941,409.193h40.5L134.37,383.658Z" transform="translate(-99.184 -307.226)" fill="#4ce166"/>
    <path id="Path_3153" data-name="Path 3153" d="M424.884,378l4.52,10.942h6.974L431.858,378Z" transform="translate(-340.173 -302.697)" fill="#ffbb24"/>
    <path id="Path_3154" data-name="Path 3154" d="M405.09,330.085h6.974l-4.543-11a1.489,1.489,0,0,0-1.375-.924h-5.981Z" transform="translate(-320.379 -254.78)" fill="#44c868"/>
  </g>
</svg>
