<svg xmlns="http://www.w3.org/2000/svg" width="16.996" height="14.117" viewBox="0 0 16.996 14.117">
  <g id="member-card" transform="translate(0 -0.002)">
    <path id="Path_1110" data-name="Path 1110" d="M16.147,2.745,15.746.92A1.17,1.17,0,0,0,14.352.029L2.284,2.684H1.229A1.231,1.231,0,0,0,0,3.914V9.241a.332.332,0,0,0,.665,0c0-.009,0-.018,0-.026v-5.3a.566.566,0,0,1,.566-.566H15.766a.566.566,0,0,1,.566.566v7.98h-16A.332.332,0,0,0,0,12.226v.662a1.221,1.221,0,0,0,.173.628l.005.009,0,0a1.23,1.23,0,0,0,1.05.59H15.766a1.229,1.229,0,0,0,1.015-.536l0-.007,0,0A1.222,1.222,0,0,0,17,12.889V3.914a1.232,1.232,0,0,0-.848-1.169ZM14.495.678a.506.506,0,0,1,.6.385l.357,1.622H5.374Zm1.837,12.211a.567.567,0,0,1-.566.566H1.23a.567.567,0,0,1-.566-.566v-.33H16.332Zm0,0" fill="#06a1cb"/>
    <path id="Path_1111" data-name="Path 1111" d="M184.18,258.082a.332.332,0,1,0,0,.664h1.879a.332.332,0,1,0,0-.664Zm0,0" transform="translate(-177.745 -249.513)" fill="#06a1cb"/>
    <path id="Path_1112" data-name="Path 1112" d="M282.668,258.746a.332.332,0,0,0,0-.664h-1.879a.332.332,0,0,0,0,.664Zm0,0" transform="translate(-271.147 -249.513)" fill="#06a1cb"/>
    <path id="Path_1113" data-name="Path 1113" d="M379.282,258.082H377.4a.332.332,0,1,0,0,.664h1.879a.332.332,0,0,0,0-.664Zm0,0" transform="translate(-364.554 -249.513)" fill="#06a1cb"/>
    <path id="Path_1114" data-name="Path 1114" d="M253.7,303.461a.332.332,0,0,0,.332.332h5.975a.332.332,0,1,0,0-.664h-5.975A.332.332,0,0,0,253.7,303.461Zm0,0" transform="translate(-245.278 -293.065)" fill="#06a1cb"/>
    <path id="Path_1115" data-name="Path 1115" d="M55.288,127.6a.332.332,0,0,0,.287.166h1l.5.863a.332.332,0,0,0,.575,0l.5-.863h1a.332.332,0,0,0,.287-.5l-.5-.863.5-.863a.332.332,0,0,0-.287-.5h-1l-.5-.863a.332.332,0,0,0-.575,0l-.5.863h-1a.332.332,0,0,0-.287.5l.5.863-.5.863A.332.332,0,0,0,55.288,127.6Zm1.169-1.361-.306-.531h.613a.332.332,0,0,0,.287-.166l.306-.531.306.531a.332.332,0,0,0,.287.166h.613l-.306.531a.332.332,0,0,0,0,.332l.306.531H57.95a.332.332,0,0,0-.287.166l-.306.531-.306-.531a.332.332,0,0,0-.287-.166H56.15l.306-.531A.332.332,0,0,0,56.456,126.239Zm0,0" transform="translate(-53.41 -119.898)" fill="#06a1cb"/>
    <path id="Path_1116" data-name="Path 1116" d="M262.824,131.473a.332.332,0,0,0-.332-.332h-5.949a.332.332,0,0,0-.332.332v1.675a.332.332,0,0,0,.332.332h5.949a.332.332,0,0,0,.332-.332Zm-.664,1.343h-5.285V131.8h5.285Zm0,0" transform="translate(-247.706 -126.786)" fill="#06a1cb"/>
    <path id="Path_1117" data-name="Path 1117" d="M.087,316.233a.334.334,0,0,0,.364.135.332.332,0,1,0-.328-.549.335.335,0,0,0-.036.414Zm0,0" transform="translate(-0.031 -305.238)" fill="#06a1cb"/>
  </g>
</svg>
