<svg xmlns="http://www.w3.org/2000/svg" width="18.96" height="17.694" viewBox="0 0 18.96 17.694">
  <g id="announcement" transform="translate(-15.96 -32)">
    <path id="Path_1106" data-name="Path 1106" d="M34.223,32.722c-.07-.178-.284-.722-.724-.722H32.076a.316.316,0,0,0-.2.073,17.709,17.709,0,0,1-2.295,1.554,10.371,10.371,0,0,1-4.77,1.533H19.753a3.792,3.792,0,0,0-.657,7.526l-.543,5.975a.948.948,0,0,0,.944,1.034h1.891a.943.943,0,0,0,.944-.862l.324-3.562h.889a.633.633,0,0,0,.632-.632v-.632a.633.633,0,0,0-.632-.632h-.717l.057-.632h1.923a10.373,10.373,0,0,1,4.77,1.532,17.71,17.71,0,0,1,2.295,1.554.316.316,0,0,0,.2.073h1.382v0l.039,0c.44,0,.654-.543.724-.722a7.691,7.691,0,0,0,.369-1.486,30.37,30.37,0,0,0,.328-4.744,30.37,30.37,0,0,0-.328-4.744A7.691,7.691,0,0,0,34.223,32.722Zm-.215,1.838a26.9,26.9,0,0,1,.248,2.814,2.2,2.2,0,0,0-1.484-.632c.047-.8.12-1.54.217-2.181a4.966,4.966,0,0,1,.51-1.879A4.958,4.958,0,0,1,34.008,34.56Zm-2.1,9.316a21.589,21.589,0,0,1-.461-4.608,26.478,26.478,0,0,1,.465-4.941c.157-.813.315-1.4.4-1.695h.5c-.015.035-.027.066-.036.09a7.691,7.691,0,0,0-.369,1.486,30.37,30.37,0,0,0-.328,4.744A30.37,30.37,0,0,0,32.4,43.7a7.691,7.691,0,0,0,.369,1.486c.009.024.022.055.036.09h-.516a11.811,11.811,0,0,1-.389-1.4Zm.8-4.924c0-.537.011-1.067.032-1.579a1.579,1.579,0,1,1,0,3.158C32.719,40.018,32.708,39.489,32.708,38.951Zm-16.115,0a3.163,3.163,0,0,1,3.16-3.16h2.528v6.319H19.753A3.163,3.163,0,0,1,16.594,38.951Zm4.794,10.111H19.5a.316.316,0,0,1-.315-.345l.141-1.551h2.525L21.7,48.775a.314.314,0,0,1-.315.287Zm.518-2.528H19.381l.345-3.792h2.525Zm1.639-2.528v.632h-.832l.057-.632Zm1.264-1.9h-1.9V35.792h1.9A10.562,10.562,0,0,0,29.9,34.17c.654-.374,1.209-.745,1.618-1.037a26.16,26.16,0,0,0-.709,6.134,20.865,20.865,0,0,0,.65,5.461c-.4-.285-.937-.639-1.56-1A10.561,10.561,0,0,0,24.809,42.111Zm9.2,1.232a4.965,4.965,0,0,1-.51,1.879,4.963,4.963,0,0,1-.51-1.879c-.1-.641-.169-1.383-.217-2.181a2.2,2.2,0,0,0,1.484-.632,26.9,26.9,0,0,1-.248,2.814Z" transform="translate(0)" fill="#06a1cb"/>
    <path id="Path_1107" data-name="Path 1107" d="M112.948,146.528a.949.949,0,0,0,.948-.948v-.632a.948.948,0,0,0-1.9,0v.632A.949.949,0,0,0,112.948,146.528Zm-.316-1.58a.316.316,0,0,1,.632,0v.632a.316.316,0,0,1-.632,0Z" transform="translate(-92.247 -107.576)" fill="#06a1cb"/>
    <path id="Path_1108" data-name="Path 1108" d="M120.316,336.632h.632a.316.316,0,0,0,0-.632h-.632a.316.316,0,0,0,0,.632Z" transform="translate(-99.931 -291.993)" fill="#06a1cb"/>
    <path id="Path_1109" data-name="Path 1109" d="M120.948,368h-.632a.316.316,0,1,0,0,.632h.632a.316.316,0,1,0,0-.632Z" transform="translate(-99.931 -322.729)" fill="#06a1cb"/>
  </g>
</svg>
