<svg xmlns="http://www.w3.org/2000/svg" width="11.74" height="9.393" viewBox="0 0 11.74 9.393">
  <path id="FontAwsome_user-edit_" data-name="FontAwsome (user-edit)" d="M4.109,4.7A2.348,2.348,0,1,0,1.761,2.348,2.348,2.348,0,0,0,4.109,4.7Zm1.644.587H5.447a3.193,3.193,0,0,1-2.675,0H2.466A2.466,2.466,0,0,0,0,7.749v.763a.881.881,0,0,0,.881.881H5.924A.881.881,0,0,1,5.876,9L6,7.885l.022-.2.145-.145L7.586,6.118A2.441,2.441,0,0,0,5.753,5.283Zm.831,2.666L6.459,9.068a.292.292,0,0,0,.323.323L7.9,9.266l2.53-2.53L9.114,5.421Zm5.028-3.016-.7-.7a.44.44,0,0,0-.62,0L9.6,4.931l-.075.075,1.317,1.315.767-.767A.442.442,0,0,0,11.613,4.933Z" fill="#06a1cb"/>
</svg>
