<svg xmlns="http://www.w3.org/2000/svg" width="34.001" height="34.001" viewBox="0 0 34.001 34.001">
  <g id="phone-call_2_" data-name="phone-call (2)" transform="translate(0 0)">
    <g id="Group_56900" data-name="Group 56900" transform="translate(0 0)">
      <path id="Path_3071" data-name="Path 3071" d="M29.019,4.977A17,17,0,1,0,34,17,17,17,0,0,0,29.019,4.977Zm-3.273,18.7,0,0v-.006l-.861.856A4.533,4.533,0,0,1,20.6,25.757,15.064,15.064,0,0,1,16.229,23.8a20.213,20.213,0,0,1-3.451-2.782A20.368,20.368,0,0,1,10.2,17.886a15.865,15.865,0,0,1-1.938-3.921A4.533,4.533,0,0,1,9.4,9.335L10.4,8.326a.72.72,0,0,1,1.018,0l0,0,3.185,3.185a.72.72,0,0,1,0,1.018l0,0-1.87,1.87a1.524,1.524,0,0,0-.159,1.983A21.87,21.87,0,0,0,14.818,19a21.736,21.736,0,0,0,2.947,2.476,1.536,1.536,0,0,0,1.961-.17l1.808-1.836a.72.72,0,0,1,1.018,0l0,0,3.19,3.2A.719.719,0,0,1,25.746,23.681Z" transform="translate(0 0)" fill="#06a1cb"/>
    </g>
  </g>
</svg>
