<svg xmlns="http://www.w3.org/2000/svg" width="22" height="22" viewBox="0 0 22 22">
  <g id="user" transform="translate(0 -0.011)">
    <g id="Group_2172" data-name="Group 2172" transform="translate(0 0.011)">
      <path id="Path_1104" data-name="Path 1104" d="M18.948,3.4A11,11,0,1,0,3.385,18.925c.006.006.009.016.015.021.064.061.133.113.2.172.177.157.353.32.54.471.1.079.2.157.306.229.176.131.352.262.536.383.125.079.254.157.382.236.17.1.339.2.514.3.148.079.3.146.451.218s.328.157.5.228.339.126.51.187.319.118.483.168c.185.056.375.1.564.145.157.038.309.082.471.114.217.043.437.071.657.1.136.019.269.046.406.059.36.035.723.055,1.089.055s.729-.02,1.089-.055c.137-.013.27-.04.406-.059.22-.03.44-.057.657-.1.157-.031.314-.079.471-.114.189-.046.379-.09.564-.145.164-.05.323-.112.483-.168s.342-.118.51-.187.331-.15.5-.228.3-.139.451-.218c.175-.093.344-.2.514-.3.128-.079.257-.15.382-.236.184-.121.36-.252.536-.383.1-.079.206-.149.306-.229.186-.149.363-.308.54-.471.064-.059.134-.111.2-.172.006-.005.009-.015.015-.021A10.984,10.984,0,0,0,18.948,3.4ZM17.182,18.1c-.143.126-.291.245-.44.361-.088.068-.176.134-.266.2-.142.1-.287.2-.434.294-.107.068-.216.134-.326.2q-.207.118-.421.236c-.126.064-.254.125-.382.185s-.271.123-.41.179-.287.108-.432.157-.265.093-.4.133c-.157.047-.321.086-.484.125-.127.03-.253.064-.382.089-.186.036-.376.061-.567.087-.108.014-.216.034-.325.045-.3.029-.607.046-.916.046s-.614-.017-.916-.046c-.109-.011-.217-.031-.325-.045-.191-.026-.381-.051-.567-.087-.129-.025-.255-.059-.382-.089-.163-.039-.324-.079-.484-.125-.134-.04-.267-.087-.4-.133s-.291-.1-.432-.157-.275-.117-.41-.179-.257-.12-.382-.185c-.142-.074-.283-.152-.421-.236-.11-.064-.219-.13-.326-.2-.147-.093-.291-.191-.434-.294-.09-.064-.178-.131-.266-.2-.149-.115-.3-.236-.44-.361-.035-.026-.066-.059-.1-.089A6.3,6.3,0,0,1,9,12.127a4.657,4.657,0,0,0,4,0,6.3,6.3,0,0,1,4.283,5.887C17.247,18.044,17.216,18.074,17.182,18.1ZM8.258,6.309a3.142,3.142,0,1,1,4.278,4.279.017.017,0,0,0-.013,0,3.328,3.328,0,0,1-.657.278c-.041.012-.079.027-.122.038-.079.02-.161.035-.242.049a3.182,3.182,0,0,1-.461.046h-.09a3.181,3.181,0,0,1-.461-.046c-.079-.014-.162-.028-.242-.049-.042-.01-.079-.026-.122-.038a3.325,3.325,0,0,1-.657-.278l-.014,0A3.142,3.142,0,0,1,8.258,6.309ZM18.674,16.456h0a7.894,7.894,0,0,0-4.205-5.414,4.713,4.713,0,1,0-6.943,0A7.894,7.894,0,0,0,3.32,16.456a9.426,9.426,0,1,1,15.354,0Z" transform="translate(0 -0.011)" fill="#06a1cb"/>
    </g>
  </g>
</svg>
