<svg xmlns="http://www.w3.org/2000/svg" width="25.475" height="20.311" viewBox="0 0 25.475 20.311">
  <g id="road-perspective" transform="translate(-152.064 17)">
    <g id="Group_57002" data-name="Group 57002" transform="translate(152.064 -17)">
      <path id="Path_3162" data-name="Path 3162" d="M161.793.8c-.1-.444-.779-.8-1.518-.8h-5.316V0l.14,3.8c0,.11-.158.2-.362.2h-2.824c-.2,0-.364-.089-.358-.2l.2-3.8V0h-5.209c-.738,0-1.423.36-1.529.8l-4.476,18.7c-.106.444.75.8,1.913.8h8.225a.086.086,0,0,1-.015-.051l.214-3.974c.006-.11.227-.2.493-.2h3.692c.266,0,.486.089.49.2l.146,3.974a.086.086,0,0,1-.016.051h8.392c1.163,0,2.025-.36,1.925-.8ZM151.467,5.463c.006-.11.181-.2.391-.2h2.914c.21,0,.384.089.388.2l.14,3.8c0,.11-.181.2-.413.2h-3.216c-.232,0-.415-.089-.409-.2Zm3.569,9.413h-3.6c-.26,0-.466-.089-.46-.2l.2-3.8c.006-.11.2-.2.442-.2h3.3c.238,0,.435.089.439.2l.14,3.8C155.5,14.786,155.3,14.875,155.036,14.875Z" transform="translate(-140.538)" fill="#5d9b58"/>
    </g>
  </g>
</svg>
