<svg xmlns="http://www.w3.org/2000/svg" width="70.115" height="70.115" viewBox="0 0 70.115 70.115">
  <g id="sem" transform="translate(-39.06 -39.06)">
    <g id="Group_2144" data-name="Group 2144" transform="translate(39.06 39.06)">
      <g id="Group_2143" data-name="Group 2143" transform="translate(0)">
        <g id="Group_2125" data-name="Group 2125" transform="translate(8.793 8.793)">
          <circle id="Ellipse_20" data-name="Ellipse 20" cx="21.055" cy="21.055" r="21.055" fill="#f1f2f2"/>
        </g>
        <g id="Group_2127" data-name="Group 2127" transform="translate(10.087 10.084)">
          <g id="Group_2126" data-name="Group 2126">
            <path id="Path_1068" data-name="Path 1068" d="M103.49,128.961a.64.64,0,0,1-.6-.4v0a.646.646,0,0,1,.359-.837.646.646,0,1,1,.482,1.2A.616.616,0,0,1,103.49,128.961Zm-.8-2.456h0a.646.646,0,0,1-.627-.491A19.779,19.779,0,0,1,121.24,101.46a19.643,19.643,0,0,1,10.976,3.335.657.657,0,0,1,.275.414.646.646,0,0,1-.1.485.668.668,0,0,1-.9.178,18.469,18.469,0,0,0-28.723,15.352,18.59,18.59,0,0,0,.546,4.476.647.647,0,0,1-.469.785A.638.638,0,0,1,102.7,126.5Z" transform="translate(-101.48 -101.46)" fill="#fff"/>
          </g>
        </g>
        <g id="Group_2128" data-name="Group 2128" transform="translate(13.43 13.43)">
          <path id="Path_1069" data-name="Path 1069" d="M151.772,122.17a21.056,21.056,0,0,1-29.6,29.6,21.056,21.056,0,1,0,29.6-29.6Z" transform="translate(-122.17 -122.17)" fill="#e6e7e8"/>
        </g>
        <g id="Group_2129" data-name="Group 2129" transform="translate(14.175 14.174)">
          <path id="Path_1070" data-name="Path 1070" d="M156.511,126.77A21.054,21.054,0,0,1,126.78,156.5a21.054,21.054,0,1,0,29.731-29.731Z" transform="translate(-126.78 -126.77)" fill="#d1d3d4"/>
        </g>
        <g id="Group_2134" data-name="Group 2134" transform="translate(46.364 46.364)">
          <g id="Group_2130" data-name="Group 2130">
            <path id="Path_1071" data-name="Path 1071" d="M330.369,335.971l5.6-5.6a2.315,2.315,0,0,1,.349-.284l-4.114-4.114a33.514,33.514,0,0,1-6.236,6.236l4.114,4.114A2.315,2.315,0,0,1,330.369,335.971Z" transform="translate(-325.97 -325.97)" fill="#195c85"/>
          </g>
          <g id="Group_2131" data-name="Group 2131" transform="translate(3.698 3.698)">
            <path id="Path_1072" data-name="Path 1072" d="M359.222,368.207l-9.667-9.667a2.392,2.392,0,0,1,0-3.382l5.6-5.6a2.392,2.392,0,0,1,3.382,0l9.667,9.667a2.392,2.392,0,0,1,0,3.382l-5.6,5.6a2.392,2.392,0,0,1-3.382,0Z" transform="translate(-348.855 -348.855)" fill="#6db5b1"/>
          </g>
          <g id="Group_2132" data-name="Group 2132" transform="translate(3.698 4.395)">
            <path id="Path_1073" data-name="Path 1073" d="M366.512,367.917a2.392,2.392,0,0,1-3.382,0l-9.667-9.667a2.392,2.392,0,0,1,0-3.382l1.7-1.7,0,0-5.6,5.6a2.392,2.392,0,0,0,0,3.382l9.667,9.667a2.392,2.392,0,0,0,3.382,0l5.6-5.6,0,0Z" transform="translate(-348.855 -353.17)" fill="#52938e"/>
          </g>
          <g id="Group_2133" data-name="Group 2133" transform="translate(0 3.347)">
            <path id="Path_1074" data-name="Path 1074" d="M329.27,346.68a33.391,33.391,0,0,1-3.3,2.888l4.114,4.114a2.422,2.422,0,0,1,.284-.349l2.776-2.776Z" transform="translate(-325.97 -346.68)" fill="#124b68"/>
          </g>
        </g>
        <g id="Group_2142" data-name="Group 2142">
          <g id="Group_2141" data-name="Group 2141">
            <g id="Group_2140" data-name="Group 2140">
              <g id="Group_2139" data-name="Group 2139">
                <g id="Group_2138" data-name="Group 2138">
                  <g id="Group_2137" data-name="Group 2137">
                    <g id="Group_2135" data-name="Group 2135">
                      <path id="Path_1075" data-name="Path 1075" d="M68.907,39.06A29.847,29.847,0,1,0,98.754,68.907,29.848,29.848,0,0,0,68.907,39.06Zm0,50.9A21.055,21.055,0,1,1,89.962,68.907,21.054,21.054,0,0,1,68.907,89.962Z" transform="translate(-39.06 -39.06)" fill="#195c85"/>
                    </g>
                    <g id="Group_2136" data-name="Group 2136" transform="translate(5 5)">
                      <path id="Path_1076" data-name="Path 1076" d="M94.847,70a24.847,24.847,0,1,0,24.847,24.847A24.847,24.847,0,0,0,94.847,70Zm0,45.9A21.055,21.055,0,1,1,115.9,94.847,21.054,21.054,0,0,1,94.847,115.9Z" transform="translate(-70 -70)" fill="#124b68"/>
                    </g>
                  </g>
                </g>
              </g>
            </g>
          </g>
        </g>
      </g>
    </g>
    <g id="Group_2163" data-name="Group 2163" transform="translate(50.795 57.562)">
      <g id="Group_2162" data-name="Group 2162" transform="translate(0)">
        <g id="Group_2157" data-name="Group 2157">
          <g id="Group_2156" data-name="Group 2156">
            <g id="Group_2145" data-name="Group 2145" transform="translate(2.634 4.266)">
              <path id="Path_1077" data-name="Path 1077" d="M136.643,191.149l-6.59,0a2.07,2.07,0,0,1-2.07-2.068l0-7.06a2.07,2.07,0,0,1,2.068-2.07l6.59,0Z" transform="translate(-127.98 -179.95)" fill="#195c85"/>
            </g>
            <g id="Group_2146" data-name="Group 2146" transform="translate(2.637 10.167)">
              <path id="Path_1078" data-name="Path 1078" d="M130.07,218.538A2.07,2.07,0,0,1,128,216.47V219.7a2.07,2.07,0,0,0,2.07,2.068l6.59,0,0-3.232Z" transform="translate(-128 -216.47)" fill="#124b68"/>
            </g>
            <g id="Group_2148" data-name="Group 2148" transform="translate(0 7.356)">
              <g id="Group_2147" data-name="Group 2147">
                <path id="Path_1079" data-name="Path 1079" d="M114.317,204.1h-1.335a1.3,1.3,0,0,1-1.3-1.3l0-2.427a1.3,1.3,0,0,1,1.3-1.3h1.335Z" transform="translate(-111.68 -199.07)" fill="#ffa91a"/>
              </g>
            </g>
            <g id="Group_2149" data-name="Group 2149" transform="translate(0 7.356)">
              <path id="Path_1080" data-name="Path 1080" d="M114.314,199.07h-1.335a1.339,1.339,0,0,0-.281.032l0,3.377h-1.02v.317a1.3,1.3,0,0,0,1.3,1.3h1.335Z" transform="translate(-111.68 -199.07)" fill="#f79219"/>
            </g>
            <g id="Group_2150" data-name="Group 2150" transform="translate(27.153 6.415)">
              <path id="Path_1081" data-name="Path 1081" d="M279.71,193.25a3.441,3.441,0,1,1,0,6.881Z" transform="translate(-279.71 -193.25)" fill="#8cc928"/>
            </g>
            <g id="Group_2151" data-name="Group 2151" transform="translate(27.155 6.771)">
              <path id="Path_1082" data-name="Path 1082" d="M281.26,195.45a3.368,3.368,0,0,1,.338,1.467,3.433,3.433,0,0,1-1.878,3.051l0,2.009a3.468,3.468,0,0,0,3.492-3.442,3.434,3.434,0,0,0-1.954-3.085Z" transform="translate(-279.72 -195.45)" fill="#74a517"/>
            </g>
            <g id="Group_2152" data-name="Group 2152" transform="translate(11.291)">
              <path id="Path_1083" data-name="Path 1083" d="M197.417,170.795a2.5,2.5,0,0,1-3.8,2.11l-2.227-1.328c-2.825-1.685-4.071-2.565-7.262-2.563l-2.573,0,0-11.2,2.573,0c3.192,0,4.436-.882,7.259-2.569l2.227-1.33a2.5,2.5,0,0,1,3.8,2.107Z" transform="translate(-181.55 -153.552)" fill="#8cc928"/>
            </g>
            <g id="Group_2153" data-name="Group 2153" transform="translate(11.296 0.003)">
              <path id="Path_1084" data-name="Path 1084" d="M197.436,156.038a2.5,2.5,0,0,0-3.232-2.358l.006,13.9a2.5,2.5,0,0,1-3.8,2.11l-2.227-1.328c-2.621-1.563-3.885-2.432-6.6-2.548l0,3.219,2.573,0c3.192,0,4.436.879,7.262,2.563l2.227,1.328a2.5,2.5,0,0,0,3.8-2.11Z" transform="translate(-181.58 -153.573)" fill="#74a517"/>
            </g>
            <g id="Group_2154" data-name="Group 2154" transform="translate(6.055 15.465)">
              <path id="Path_1085" data-name="Path 1085" d="M153.313,257.677a1.952,1.952,0,0,1-1.944-1.664l-.333-2.325a.581.581,0,0,0-.205-.365l-1.039-.858a.575.575,0,0,1-.2-.36l-.438-2.852,5.216,0,.889,6.223a1.945,1.945,0,0,1-1.942,2.2Z" transform="translate(-149.15 -249.25)" fill="#ffa91a"/>
            </g>
            <g id="Group_2155" data-name="Group 2155" transform="translate(8.277 15.466)">
              <path id="Path_1086" data-name="Path 1086" d="M166.783,255.483l-.889-6.223H164.51l.658,4.607a1.942,1.942,0,0,1-1.942,2.2,1.975,1.975,0,0,1-.325-.029,1.962,1.962,0,0,0,3.883-.558Z" transform="translate(-162.9 -249.26)" fill="#f79219"/>
            </g>
          </g>
        </g>
        <g id="Group_2161" data-name="Group 2161" transform="translate(30.978 2.412)">
          <g id="Group_2158" data-name="Group 2158" transform="translate(1.886 6.64)">
            <path id="Path_1087" data-name="Path 1087" d="M318.8,211.18h-2.949a.8.8,0,1,1,0-1.61H318.8a.8.8,0,1,1,0,1.61Z" transform="translate(-315.05 -209.57)" fill="#f79219"/>
          </g>
          <g id="Group_2159" data-name="Group 2159">
            <path id="Path_1088" data-name="Path 1088" d="M306.836,169.852l-2.085,2.085a.8.8,0,0,1-1.138-1.138l2.085-2.085a.8.8,0,0,1,1.138,1.138Z" transform="translate(-303.378 -168.478)" fill="#f79219"/>
          </g>
          <g id="Group_2160" data-name="Group 2160" transform="translate(0 11.198)">
            <path id="Path_1089" data-name="Path 1089" d="M305.7,241.229l-2.085-2.085a.8.8,0,0,1,1.138-1.138l2.085,2.085a.8.8,0,0,1-1.138,1.138Z" transform="translate(-303.378 -237.771)" fill="#f79219"/>
          </g>
        </g>
      </g>
    </g>
  </g>
</svg>
