<svg xmlns="http://www.w3.org/2000/svg" width="19.694" height="21.278" viewBox="0 0 19.694 21.278">
  <path id="share" d="M24.136,13.249A4.007,4.007,0,0,0,21.048,14.7L16.254,11.98a4.006,4.006,0,0,0,0-2.681l4.794-2.723a4.01,4.01,0,1,0-.694-1.221L15.559,8.078a4.014,4.014,0,1,0,0,5.123l4.794,2.722a4.014,4.014,0,1,0,3.783-2.674Zm0-11.844a2.61,2.61,0,1,1-2.61,2.609A2.612,2.612,0,0,1,24.136,1.4ZM12.471,13.249a2.61,2.61,0,1,1,2.609-2.609A2.613,2.613,0,0,1,12.471,13.249Zm11.665,6.625a2.61,2.61,0,1,1,2.609-2.609A2.613,2.613,0,0,1,24.136,19.874Z" transform="translate(-8.456)" fill="#06a1cb"/>
</svg>
