<svg id="Group_56752" data-name="Group 56752" xmlns="http://www.w3.org/2000/svg" width="18.374" height="14.438" viewBox="0 0 18.374 14.438">
  <path id="Path_2885" data-name="Path 2885" d="M10.843,64.6a6.511,6.511,0,0,0,2.63-1.912,4.084,4.084,0,0,0,0-5.27,6.512,6.512,0,0,0-2.63-1.912,9.235,9.235,0,0,0-3.625-.7,9.238,9.238,0,0,0-3.625.7,6.512,6.512,0,0,0-2.63,1.912A4.141,4.141,0,0,0,0,60.054a4.029,4.029,0,0,0,.728,2.3,5.991,5.991,0,0,0,2,1.815q-.1.246-.21.451a2.6,2.6,0,0,1-.256.395q-.149.19-.231.3t-.267.3q-.185.195-.236.256c0-.007-.014.009-.041.046s-.043.055-.046.051-.017.013-.041.051l-.036.056-.026.051a.22.22,0,0,0-.02.061.4.4,0,0,0-.005.067.206.206,0,0,0,.01.067.34.34,0,0,0,.118.215.32.32,0,0,0,.21.082h.031a8.6,8.6,0,0,0,.882-.164,8.622,8.622,0,0,0,2.85-1.312,10.3,10.3,0,0,0,1.8.164A9.227,9.227,0,0,0,10.843,64.6Z" transform="translate(0 -54.804)" fill="#06a1cb"/>
  <path id="Path_2886" data-name="Path 2886" d="M187.2,164.062a4,4,0,0,0-.041-4.66,6.078,6.078,0,0,0-2.092-1.825,5.277,5.277,0,0,1-.451,4.163,6.863,6.863,0,0,1-1.969,2.174,9.079,9.079,0,0,1-2.707,1.323,10.832,10.832,0,0,1-3.168.461q-.307,0-.9-.041a8.616,8.616,0,0,0,4.839,1.353,10.3,10.3,0,0,0,1.8-.164,8.188,8.188,0,0,0,3.732,1.477.309.309,0,0,0,.226-.072.379.379,0,0,0,.133-.225c0-.041,0-.064.01-.067s.008-.026-.005-.067l-.02-.062-.026-.051a.492.492,0,0,0-.036-.056.442.442,0,0,0-.041-.051l-.046-.051-.041-.046q-.051-.062-.236-.256t-.267-.3q-.082-.108-.231-.3a2.594,2.594,0,0,1-.256-.395q-.108-.205-.21-.451A6.016,6.016,0,0,0,187.2,164.062Z" transform="translate(-169.55 -153.886)" fill="#06a1cb"/>
</svg>
