<svg xmlns="http://www.w3.org/2000/svg" width="17.168" height="21.793" viewBox="0 0 17.168 21.793">
  <g id="terms-and-conditions" transform="translate(-54.334)">
    <path id="Path_1129" data-name="Path 1129" d="M54.334,0V21.793H67.041l4.46-4.46V0Zm1.277,1.277H70.225V16.16H65.869v4.356H55.611V1.277Zm13.98,16.16-2.445,2.445V17.437Z" fill="#06a1cb"/>
    <path id="Path_1130" data-name="Path 1130" d="M192,91.667h5.448v1.277H192Z" transform="translate(-131.806 -87.765)" fill="#06a1cb"/>
    <path id="Path_1131" data-name="Path 1131" d="M133.333,166.333h10.442v1.277H133.333Z" transform="translate(-75.636 -159.253)" fill="#06a1cb"/>
    <path id="Path_1132" data-name="Path 1132" d="M133.333,230.333h10.442v1.277H133.333Z" transform="translate(-75.636 -220.529)" fill="#06a1cb"/>
    <path id="Path_1133" data-name="Path 1133" d="M133.333,294.333h10.442v1.277H133.333Z" transform="translate(-75.636 -281.805)" fill="#06a1cb"/>
    <path id="Path_1134" data-name="Path 1134" d="M133.333,379.667h1.341v1.277h-1.341Z" transform="translate(-75.636 -363.507)" fill="#06a1cb"/>
    <path id="Path_1135" data-name="Path 1135" d="M194.833,379.667h2.6v1.277h-2.6Z" transform="translate(-134.519 -363.507)" fill="#06a1cb"/>
  </g>
</svg>
