<svg xmlns="http://www.w3.org/2000/svg" width="160" height="160" viewBox="0 0 160 160">
  <g id="Group_56758" data-name="Group 56758" transform="translate(-127 -136)">
    <circle id="Ellipse_49" data-name="Ellipse 49" cx="80" cy="80" r="80" transform="translate(127 136)" fill="#007c9d"/>
    <g id="stamp" transform="translate(140 156.007)">
      <path id="Path_2889" data-name="Path 2889" d="M33.935,94.993H86.476a.863.863,0,0,0,.917-.845V84.235h8.818a.91.91,0,0,0,.879-.939V79.69h2.55a.9.9,0,0,0,.935-.876V73a3.645,3.645,0,0,0-3.691-3.611H91.352L93.816,54.1c0-.019.005-.052.007-.071a5.894,5.894,0,0,0-5.908-6.457h-.523V25.839a.863.863,0,0,0-.917-.845H44.966a.881.881,0,0,0-.628.22L33.293,35.756A.887.887,0,0,0,33,36.4V94.147A.879.879,0,0,0,33.935,94.993ZM98.757,77.872H82.9a.909.909,0,1,0,0,1.818H95.272v2.727H76.484V79.69h2.123a.909.909,0,1,0,0-1.818H73V76.205H98.757Zm-1.873-6.667A1.825,1.825,0,0,1,98.757,73v1.389H73V73a1.664,1.664,0,0,1,.11-.572,1.839,1.839,0,0,1,1.755-1.221ZM87.916,49.387a4.039,4.039,0,0,1,3.048,1.318,3.955,3.955,0,0,1,1.052,3.085l-2.5,15.445h-7.28l-2.5-15.445A3.957,3.957,0,0,1,80.786,50.7a4.041,4.041,0,0,1,3.048-1.317ZM44.06,27.968v7.481H36.179Zm-9.242,9.3H44.966a.864.864,0,0,0,.912-.85v-9.6h39.7V47.569H83.834a5.886,5.886,0,0,0-5.909,6.459c0,.019,0,.058.007.077l.265,1.645H42.645a.909.909,0,1,0,0,1.818H78.491l.537,3.333H42.645a.909.909,0,1,0,0,1.818H79.321l.537,3.333H42.645a.909.909,0,1,0,0,1.818H80.152l.244,1.515H74.864a3.672,3.672,0,0,0-3.183,1.818H42.645a.909.909,0,1,0,0,1.818H71.181v3.333H42.645a.909.909,0,1,0,0,1.818H71.181v.639a.9.9,0,0,0,.927.876h2.558V83.3a.9.9,0,0,0,.871.939H85.575v8.939H34.818Z" fill="#fff"/>
      <path id="Path_2890" data-name="Path 2890" d="M113.166,398h-21.6a.909.909,0,1,0,0,1.818h21.6a.909.909,0,1,0,0-1.818Z" transform="translate(-48.924 -316.492)" fill="#fff"/>
      <path id="Path_2891" data-name="Path 2891" d="M101.65,126.889a8.066,8.066,0,1,0-8.03-8.065A8.066,8.066,0,0,0,101.65,126.889Zm0-14.313a6.248,6.248,0,1,1-6.212,6.248A6.248,6.248,0,0,1,101.65,112.576Z" transform="translate(-51.435 -72.77)" fill="#fff"/>
      <path id="Path_2892" data-name="Path 2892" d="M118.611,141.054a4.987,4.987,0,1,0-5-4.986A4.987,4.987,0,0,0,118.611,141.054Zm0-8.156a3.169,3.169,0,1,1-3.183,3.17A3.169,3.169,0,0,1,118.611,132.9Z" transform="translate(-68.397 -90.014)" fill="#fff"/>
      <path id="Path_2893" data-name="Path 2893" d="M362.562,272.121a.909.909,0,0,0-.751,1.043l.155.95a.909.909,0,0,0,1.795-.292l-.155-.95A.909.909,0,0,0,362.562,272.121Z" transform="translate(-278.981 -209.675)" fill="#fff"/>
      <path id="Path_2894" data-name="Path 2894" d="M352,196.424a2.585,2.585,0,0,0-.673,1.882.86.86,0,0,0,.01.1l1.091,6.757a.909.909,0,1,0,1.795-.29l-1.082-6.7a.787.787,0,0,1,.786-.782.909.909,0,0,0,0-1.818A2.576,2.576,0,0,0,352,196.424Z" transform="translate(-270.094 -144.733)" fill="#fff"/>
    </g>
  </g>
</svg>
