<svg xmlns="http://www.w3.org/2000/svg" width="78" height="82.588" viewBox="0 0 78 82.588">
  <g id="travel" transform="translate(-26.27 -13.023)">
    <path id="Path_1005" data-name="Path 1005" d="M312.775,25.575l3.743,2.891,5.818.778A.72.72,0,0,1,323,30.4l-4.991,3.18L316.2,39.2a.721.721,0,0,1-1.285-.348l-2.231-5.419-3.745-2.893-4.363,5.648a.627.627,0,0,1-.878.115l0,0-1.173-.9a1.257,1.257,0,0,1-.357-1.55l3.061-6.173-7.884-6.089a3.136,3.136,0,1,1,3.813-4.981.248.248,0,0,0,.022.017l7.884,6.089,5.2-4.521a1.254,1.254,0,0,1,1.591-.046l1.171.9a.627.627,0,0,1,.112.879Z" transform="translate(-224.036 -2.435)" fill="#e5f5fd"/>
    <path id="Path_1006" data-name="Path 1006" d="M142.628,137.022a2.517,2.517,0,0,1-1.105,2.514l-3.935,2.577a2.518,2.518,0,0,0-1.093,2.579l.53,2.769a2.521,2.521,0,0,0,1.38,1.8l2.764,1.331a2.516,2.516,0,0,1,1.385,2.715l-1.007,5.592a2.518,2.518,0,0,1-4.762.616l-1.012-2.181a2.52,2.52,0,0,0-2.283-1.457h-4.1a2.521,2.521,0,0,0-1.446.457l-2.755,1.934a2.514,2.514,0,0,1-2.027.389l-4.75-1.127h0a23.445,23.445,0,0,1,23.028-27.714Z" transform="translate(-76.171 -96.961)" fill="#7fcac9"/>
    <path id="Path_1007" data-name="Path 1007" d="M123.527,157.524h0a23.449,23.449,0,0,1,18.022-27.176l-.088-.538a23.444,23.444,0,0,0-23.028,27.714h0l4.75,1.127a2.513,2.513,0,0,0,2.027-.389l.362-.253Z" transform="translate(-76.191 -96.961)" fill="#7fcac9"/>
    <path id="Path_1008" data-name="Path 1008" d="M162.1,139.164l-2.611,1.859a4.133,4.133,0,0,0-1.608,2.346l-.55,2.148a4.13,4.13,0,0,0,1.46,4.288,4.138,4.138,0,0,1,1.491,4.168l-1.11,4.957a4.143,4.143,0,0,1-1.127,2.035l-.969.961a4.143,4.143,0,0,0-1.2,3.39l.786,7.2,0,0a23.427,23.427,0,0,1-36.314-15h0l4.75,1.127a2.513,2.513,0,0,0,2.027-.389l2.755-1.934a2.521,2.521,0,0,1,1.446-.457h4.1a2.52,2.52,0,0,1,2.283,1.457l1.012,2.181a2.518,2.518,0,0,0,4.762-.616l1.007-5.592a2.516,2.516,0,0,0-1.385-2.715l-2.764-1.331a2.52,2.52,0,0,1-1.38-1.8l-.53-2.769a2.518,2.518,0,0,1,1.093-2.579l3.935-2.577a2.517,2.517,0,0,0,1.105-2.514l-1.187-7.212a23.377,23.377,0,0,1,18.725,9.354Z" transform="translate(-78.109 -96.961)" fill="#195c85"/>
    <path id="Path_1009" data-name="Path 1009" d="M125.7,294.253a2.515,2.515,0,0,1-.6-.066l-4.75-1.127h0a23.431,23.431,0,0,0,23.028,19.127,23.884,23.884,0,0,0,2.536-.139A23.442,23.442,0,0,1,125.7,294.253Z" transform="translate(-78.109 -232.497)" fill="#0f4763"/>
    <path id="Path_1010" data-name="Path 1010" d="M335.729,184.91A23.422,23.422,0,0,1,331.07,217.7c-.256.192-.516.38-.781.562l0,0-.786-7.2a4.143,4.143,0,0,1,1.2-3.39l.969-.961a4.143,4.143,0,0,0,1.127-2.035l1.11-4.957a4.138,4.138,0,0,0-1.491-4.168,4.13,4.13,0,0,1-1.46-4.288l.55-2.148a4.133,4.133,0,0,1,1.608-2.346Z" transform="translate(-251.734 -142.707)" fill="#7fcac9"/>
    <g id="Group_2121" data-name="Group 2121" transform="translate(26.27 13.023)">
      <path id="Path_1011" data-name="Path 1011" d="M471.709,261.4a1.083,1.083,0,0,1,1.081,1.081,39.266,39.266,0,0,1-.392,5.538,1.082,1.082,0,0,1-1.068.929,1.178,1.178,0,0,1-.154-.01,1.084,1.084,0,0,1-.918-1.224,37.214,37.214,0,0,0,.37-5.232,1.081,1.081,0,0,1,1.081-1.081Z" transform="translate(-394.876 -219.235)" fill="#284268"/>
      <path id="Path_1012" data-name="Path 1012" d="M466.814,204.825a1.08,1.08,0,0,1-.917,1.222h0a1.18,1.18,0,0,1-.154.01,1.078,1.078,0,0,1-1.068-.929,36.435,36.435,0,0,0-1.11-5.123,1.081,1.081,0,1,1,2.075-.608h0A38.686,38.686,0,0,1,466.814,204.825Z" transform="translate(-389.291 -167.113)" fill="#284268"/>
      <path id="Path_1013" data-name="Path 1013" d="M451.318,334.368a1.079,1.079,0,0,1,.669,1.373v0a39.044,39.044,0,0,1-2.19,5.106,1.08,1.08,0,0,1-1.92-.991v0a36.491,36.491,0,0,0,2.066-4.821,1.081,1.081,0,0,1,1.375-.667Z" transform="translate(-376.203 -279.765)" fill="#284268"/>
      <path id="Path_1014" data-name="Path 1014" d="M436.036,137.3a1.08,1.08,0,0,1-1.92.99h0a36.919,36.919,0,0,0-2.732-4.473,1.081,1.081,0,0,1,1.75-1.268l.01.014a39.107,39.107,0,0,1,2.891,4.738Z" transform="translate(-362.44 -111.889)" fill="#284268"/>
      <path id="Path_1015" data-name="Path 1015" d="M408.756,399.415a1.08,1.08,0,0,1,.18,1.518h0a39.273,39.273,0,0,1-3.737,4.107,1.08,1.08,0,1,1-1.508-1.548l.015-.015a37.3,37.3,0,0,0,3.531-3.881,1.08,1.08,0,0,1,1.518-.18Z" transform="translate(-339.349 -333.627)" fill="#284268"/>
      <path id="Path_1016" data-name="Path 1016" d="M348.894,449.418a1.08,1.08,0,0,1-.323,1.494h0a38.8,38.8,0,0,1-4.871,2.664,1.08,1.08,0,0,1-.922-1.954l.024-.01a36.677,36.677,0,0,0,4.6-2.516,1.081,1.081,0,0,1,1.494.323Z" transform="translate(-288.533 -374.923)" fill="#284268"/>
      <path id="Path_1017" data-name="Path 1017" d="M278.276,478.859a1.081,1.081,0,0,1-.8,1.306h0a38.809,38.809,0,0,1-5.477.913c-.036,0-.07.005-.1.005a1.08,1.08,0,0,1-.1-2.156,36.8,36.8,0,0,0,5.173-.864A1.082,1.082,0,0,1,278.276,478.859Z" transform="translate(-229.304 -399.091)" fill="#284268"/>
      <path id="Path_1018" data-name="Path 1018" d="M245.612,38.724a1.081,1.081,0,0,1-.1,2.158c-.034,0-.068,0-.1-.005a37.556,37.556,0,0,0-5.244-.124,1.081,1.081,0,0,1-.1-2.159A39.847,39.847,0,0,1,245.612,38.724Z" transform="translate(-202.913 -34.217)" fill="#284268"/>
      <path id="Path_1019" data-name="Path 1019" d="M203.6,478.927a1.08,1.08,0,0,1-.1,2.156c-.034,0-.07,0-.1,0a39.052,39.052,0,0,1-5.477-.915,1.081,1.081,0,0,1,.508-2.1,36.791,36.791,0,0,0,5.173.864Z" transform="translate(-168.098 -399.091)" fill="#7fcac9"/>
      <path id="Path_1020" data-name="Path 1020" d="M174.065,45.605a1.077,1.077,0,0,1-.793,1.3l0,0a36.754,36.754,0,0,0-4.994,1.6,1.081,1.081,0,0,1-.8-2.007,38.516,38.516,0,0,1,5.292-1.689,1.077,1.077,0,0,1,1.3.793s0,0,0,0Z" transform="translate(-142.936 -39.387)" fill="#284268"/>
      <path id="Path_1021" data-name="Path 1021" d="M135.4,451.6a1.081,1.081,0,1,1-.9,1.966,38.845,38.845,0,0,1-4.874-2.665,1.081,1.081,0,0,1,1.17-1.818,36.964,36.964,0,0,0,4.6,2.518Z" transform="translate(-111.666 -374.91)" fill="#284268"/>
      <path id="Path_1022" data-name="Path 1022" d="M110,74.391a1.081,1.081,0,0,1-.324,1.494h0a37.141,37.141,0,0,0-4.2,3.146,1.08,1.08,0,0,1-1.423-1.626s.005-.005.008-.007a39.092,39.092,0,0,1,4.443-3.329A1.081,1.081,0,0,1,110,74.391Z" transform="translate(-90.54 -63.563)" fill="#7fcac9"/>
      <path id="Path_1023" data-name="Path 1023" d="M79.924,403.489a1.081,1.081,0,0,1-1.492,1.564,39.447,39.447,0,0,1-3.736-4.107,1.081,1.081,0,0,1,1.7-1.338A37.1,37.1,0,0,0,79.924,403.489Z" transform="translate(-66.287 -333.644)" fill="#284268"/>
      <path id="Path_1024" data-name="Path 1024" d="M61.384,123.861a1.082,1.082,0,0,1,.18,1.519,37,37,0,0,0-2.944,4.341,1.081,1.081,0,0,1-.937.54,1.056,1.056,0,0,1-.54-.146,1.082,1.082,0,0,1-.394-1.477,38.82,38.82,0,0,1,3.117-4.6,1.082,1.082,0,0,1,1.518-.182Z" transform="translate(-51.454 -104.854)" fill="#7fcac9"/>
      <path id="Path_1025" data-name="Path 1025" d="M43.128,339.846a1.081,1.081,0,1,1-1.922.991,38.682,38.682,0,0,1-2.188-5.1,1.081,1.081,0,1,1,2.042-.708,37.188,37.188,0,0,0,2.068,4.821Z" transform="translate(-36.804 -279.757)" fill="#284268"/>
      <path id="Path_1026" data-name="Path 1026" d="M33.593,188.549a1.08,1.08,0,0,1,.669,1.373v0a36.777,36.777,0,0,0-1.355,5.066,1.079,1.079,0,0,1-1.059.878,1.186,1.186,0,0,1-.205-.019,1.079,1.079,0,0,1-.857-1.263v0a39.069,39.069,0,0,1,1.433-5.366A1.082,1.082,0,0,1,33.593,188.549Z" transform="translate(-30.002 -158.701)" fill="#284268"/>
      <path id="Path_1027" data-name="Path 1027" d="M29.3,267.705a1.08,1.08,0,0,1-.917,1.222h0a1.183,1.183,0,0,1-.154.01,1.077,1.077,0,0,1-1.068-.929,39.221,39.221,0,0,1-.392-5.536,1.081,1.081,0,0,1,2.163,0A37.242,37.242,0,0,0,29.3,267.705Z" transform="translate(-26.685 -219.226)" fill="#284268"/>
      <path id="Path_1028" data-name="Path 1028" d="M238.91,43.123a1.143,1.143,0,0,0,.834.3,37.409,37.409,0,0,1,5.234.122c.037,0,.075.005.11.005a1.166,1.166,0,0,0,.107-2.326,39.751,39.751,0,0,0-5.561-.131,1.166,1.166,0,0,0-.723,2.034Z" transform="translate(-202.489 -36.289)" fill="#7fcac9"/>
      <path id="Path_1029" data-name="Path 1029" d="M167.444,51.241a1.15,1.15,0,0,0,.433-.085,36.649,36.649,0,0,1,4.983-1.591,1.166,1.166,0,1,0-.548-2.266,38.922,38.922,0,0,0-5.3,1.693,1.167,1.167,0,0,0,.436,2.249Z" transform="translate(-142.508 -41.453)" fill="#7fcac9"/>
      <path id="Path_1030" data-name="Path 1030" d="M109.318,78.491a1.166,1.166,0,1,0-1.239-1.976l-.024.015a39.246,39.246,0,0,0-4.451,3.336,1.166,1.166,0,0,0,1.528,1.762h0A37.26,37.26,0,0,1,109.318,78.491Z" transform="translate(-90.141 -65.588)" fill="#7fcac9"/>
      <path id="Path_1031" data-name="Path 1031" d="M328.413,44.1a1.207,1.207,0,1,0,.217,1.694,1.206,1.206,0,0,0-.217-1.694Z" transform="translate(-275.507 -38.616)" fill="#55b56a"/>
      <path id="Path_1032" data-name="Path 1032" d="M345.96,57.648a1.209,1.209,0,1,0,.458.8,1.206,1.206,0,0,0-.458-.8Z" transform="translate(-290.074 -49.863)" fill="#55b56a"/>
      <path id="Path_1033" data-name="Path 1033" d="M363.5,71.2a1.207,1.207,0,1,0,.46.8,1.206,1.206,0,0,0-.46-.8Z" transform="translate(-304.64 -61.116)" fill="#55b56a"/>
      <path id="Path_1034" data-name="Path 1034" d="M381.05,84.758a1.207,1.207,0,1,0,.217,1.693,1.206,1.206,0,0,0-.217-1.693Z" transform="translate(-319.207 -72.371)" fill="#55b56a"/>
      <path id="Path_1035" data-name="Path 1035" d="M276.536,480.56a36.867,36.867,0,0,1-5.161.862,1.166,1.166,0,0,0,.107,2.327c.037,0,.073,0,.11-.005a38.976,38.976,0,0,0,5.488-.917,1.166,1.166,0,0,0-.545-2.268Z" transform="translate(-228.888 -401.162)" fill="#7fcac9"/>
      <path id="Path_1036" data-name="Path 1036" d="M203.178,481.422a36.628,36.628,0,0,1-5.161-.862,1.166,1.166,0,1,0-.548,2.266h0a39.022,39.022,0,0,0,5.488.917c.037,0,.073.005.11.005a1.166,1.166,0,0,0,.11-2.326Z" transform="translate(-167.665 -401.162)" fill="#7fcac9"/>
      <path id="Path_1037" data-name="Path 1037" d="M432.054,134.66a1.166,1.166,0,0,0-1.143,1.827,36.755,36.755,0,0,1,2.726,4.463,1.165,1.165,0,0,0,2.093-1.024c-.007-.015-.015-.031-.024-.046a39.06,39.06,0,0,0-2.9-4.747,1.149,1.149,0,0,0-.754-.474Z" transform="translate(-362.039 -113.997)" fill="#7fcac9"/>
      <path id="Path_1038" data-name="Path 1038" d="M346.994,451.633a36.719,36.719,0,0,1-4.587,2.509,1.166,1.166,0,1,0,.969,2.12h0a39.074,39.074,0,0,0,4.881-2.67,1.166,1.166,0,0,0-1.263-1.959Z" transform="translate(-288.172 -377.024)" fill="#7fcac9"/>
      <path id="Path_1039" data-name="Path 1039" d="M408.446,401.927a1.166,1.166,0,0,0-1.637.194h0a36.929,36.929,0,0,1-3.523,3.871,1.165,1.165,0,0,0,1.608,1.687,39.28,39.28,0,0,0,3.745-4.117A1.166,1.166,0,0,0,408.446,401.927Z" transform="translate(-338.986 -335.697)" fill="#7fcac9"/>
      <path id="Path_1040" data-name="Path 1040" d="M464.174,207.717a1.172,1.172,0,0,0,1.153,1,1.1,1.1,0,0,0,.166-.012,1.167,1.167,0,0,0,.99-1.319,38.667,38.667,0,0,0-1.178-5.439,1.166,1.166,0,0,0-2.237.655h0a36.539,36.539,0,0,1,1.107,5.113Z" transform="translate(-388.876 -169.18)" fill="#7fcac9"/>
      <path id="Path_1041" data-name="Path 1041" d="M450.856,336.865a1.168,1.168,0,0,0-1.484.72,36.771,36.771,0,0,1-2.063,4.811,1.166,1.166,0,1,0,2.041,1.127l.031-.058a39.124,39.124,0,0,0,2.2-5.118,1.165,1.165,0,0,0-.72-1.482Z" transform="translate(-375.712 -281.835)" fill="#7fcac9"/>
      <path id="Path_1042" data-name="Path 1042" d="M31.211,198.5a1.167,1.167,0,0,0,1.365-.925v0a36.6,36.6,0,0,1,1.351-5.054,1.166,1.166,0,0,0-2.2-.764h0a38.7,38.7,0,0,0-1.438,5.378,1.165,1.165,0,0,0,.925,1.367Z" transform="translate(-29.586 -160.762)" fill="#7fcac9"/>
      <path id="Path_1043" data-name="Path 1043" d="M135.017,454.1a36.583,36.583,0,0,1-4.592-2.513,1.165,1.165,0,1,0-1.261,1.959,39.233,39.233,0,0,0,4.884,2.672,1.165,1.165,0,1,0,.969-2.119Z" transform="translate(-111.251 -376.977)" fill="#7fcac9"/>
      <path id="Path_1044" data-name="Path 1044" d="M28.971,270.21a37.043,37.043,0,0,1-.368-5.22,1.166,1.166,0,0,0-2.333-.027v.029a39.389,39.389,0,0,0,.392,5.548,1.172,1.172,0,0,0,1.153,1,1.094,1.094,0,0,0,.166-.012A1.167,1.167,0,0,0,28.971,270.21Z" transform="translate(-26.27 -221.235)" fill="#7fcac9"/>
      <path id="Path_1045" data-name="Path 1045" d="M471.3,263.9a1.168,1.168,0,0,0-1.166,1.166,37.044,37.044,0,0,1-.368,5.22,1.167,1.167,0,0,0,.99,1.319,1.083,1.083,0,0,0,.166.012,1.172,1.172,0,0,0,1.153-1,39.411,39.411,0,0,0,.392-5.55A1.168,1.168,0,0,0,471.3,263.9Z" transform="translate(-394.463 -221.31)" fill="#7fcac9"/>
      <path id="Path_1046" data-name="Path 1046" d="M40.739,337.585a1.166,1.166,0,1,0-2.2.764,38.959,38.959,0,0,0,2.193,5.117,1.165,1.165,0,1,0,2.095-1.022c-.007-.015-.015-.031-.024-.046a36.739,36.739,0,0,1-2.061-4.813Z" transform="translate(-36.399 -281.835)" fill="#7fcac9"/>
      <path id="Path_1047" data-name="Path 1047" d="M76.014,402.106a1.167,1.167,0,0,0-1.833,1.443h0a39.427,39.427,0,0,0,3.743,4.115,1.166,1.166,0,0,0,1.609-1.687A37.271,37.271,0,0,1,76.014,402.106Z" transform="translate(-65.84 -335.685)" fill="#7fcac9"/>
      <path id="Path_1048" data-name="Path 1048" d="M61.022,126.381a1.166,1.166,0,0,0-1.637.2,39.152,39.152,0,0,0-3.124,4.607,1.166,1.166,0,1,0,2.018,1.168,36.988,36.988,0,0,1,2.937-4.332A1.168,1.168,0,0,0,61.022,126.381Z" transform="translate(-51.04 -106.93)" fill="#7fcac9"/>
      <path id="Path_1049" data-name="Path 1049" d="M310.275,38.509a1.733,1.733,0,0,0,1.83-.615.99.99,0,0,0,.163-.311l1.693-5.269,4.682-2.983a1.012,1.012,0,0,0,.26-.236,1.739,1.739,0,0,0-1.436-2.8l-5.441-.728-2.723-2.1,3.74-4.842a1.648,1.648,0,0,0-.3-2.309h0l-1.171-.9a2.282,2.282,0,0,0-2.883.083l-4.568,3.972L296.9,13.885a4.154,4.154,0,0,0-5.079,6.575l7.223,5.578-2.689,5.424A2.277,2.277,0,0,0,297,34.27l1.171.9a1.638,1.638,0,0,0,1,.343,1.809,1.809,0,0,0,.214-.014,1.638,1.638,0,0,0,1.093-.626l3.74-4.842,2.723,2.1,2.088,5.069a1.731,1.731,0,0,0,1.239,1.3Zm-1.548-7.393a1.018,1.018,0,0,0-.319-.418l-5.234-4.042a1.019,1.019,0,1,0-1.246,1.613l.682.528-3.5,4.533-.862-.665a.238.238,0,0,1-.068-.292L301.24,26.2a1.017,1.017,0,0,0-.29-1.258l-7.884-6.089a2.118,2.118,0,0,1,2.589-3.353h0l7.884,6.089a1.019,1.019,0,0,0,1.292-.037l5.2-4.521a.236.236,0,0,1,.3-.008l.862.665-3.5,4.533-.682-.528a1.019,1.019,0,1,0-1.246,1.613h0L311,27.348a1.017,1.017,0,0,0,.487.2l5.1.681-4.022,2.562a1.019,1.019,0,0,0-.423.547l-1.453,4.526Z" transform="translate(-245.405 -13.023)" fill="#195c85"/>
      <path id="Path_1050" data-name="Path 1050" d="M136.479,126.81a24.439,24.439,0,1,0,24.439,24.439A24.467,24.467,0,0,0,136.479,126.81Zm-22.4,24.439a22.428,22.428,0,0,1,21.54-22.383l1.042,6.339a1.5,1.5,0,0,1-.659,1.5l-3.933,2.575a3.528,3.528,0,0,0-1.536,3.623l.53,2.769A3.547,3.547,0,0,0,133,148.192l2.764,1.331a1.5,1.5,0,0,1,.825,1.616l-1.007,5.594a1.5,1.5,0,0,1-2.835.367l-1.013-2.18a3.545,3.545,0,0,0-3.207-2.046h-4.1a3.513,3.513,0,0,0-2.032.642l-2.755,1.934a1.5,1.5,0,0,1-1.207.231l-4.093-.971a22.935,22.935,0,0,1-.265-3.46Zm33.888,12.2.718,6.582A22.39,22.39,0,0,1,114.8,156.912l3.164.75a3.542,3.542,0,0,0,2.849-.547l2.754-1.934a1.5,1.5,0,0,1,.861-.272h4.1a1.506,1.506,0,0,1,1.36.867l1.013,2.18a3.536,3.536,0,0,0,6.038.626,3.544,3.544,0,0,0,.648-1.492l1.007-5.594a3.548,3.548,0,0,0-1.945-3.813l-2.764-1.331a1.5,1.5,0,0,1-.822-1.07l-.53-2.769a1.493,1.493,0,0,1,.652-1.535l3.933-2.575a3.538,3.538,0,0,0,1.552-3.533l-.985-5.994a22.369,22.369,0,0,1,16.049,8.1L152,138.21a5.165,5.165,0,0,0-2,2.923l-.55,2.149a5.157,5.157,0,0,0,1.822,5.342,3.137,3.137,0,0,1,1.124,3.142l-1.112,4.957a3.115,3.115,0,0,1-.849,1.535l-.969.959A5.135,5.135,0,0,0,147.965,163.445Zm10.916-12.2a22.368,22.368,0,0,1-8.3,17.392l-.591-5.419a3.11,3.11,0,0,1,.907-2.557l.969-.959a5.154,5.154,0,0,0,1.4-2.536l1.112-4.957a5.184,5.184,0,0,0-1.857-5.193,3.122,3.122,0,0,1-1.1-3.232l.55-2.149a3.123,3.123,0,0,1,1.214-1.769l1.777-1.266a22.3,22.3,0,0,1,3.916,12.646Z" transform="translate(-97.479 -107.493)" fill="#fff"/>
    </g>
  </g>
</svg>
